<?xml version="1.0" standalone="no"?>
<!DOCTYPE svg PUBLIC "-//W3C//DTD SVG 20010904//EN"
 "http://www.w3.org/TR/2001/REC-SVG-20010904/DTD/svg10.dtd">
<svg version="1.0" xmlns="http://www.w3.org/2000/svg"
 width="1412.000000pt" height="1226.000000pt" viewBox="0 0 1412.000000 1226.000000"
 preserveAspectRatio="xMidYMid meet">

<g transform="translate(0.000000,1226.000000) scale(0.100000,-0.100000)"
fill="#000000" stroke="none">
<path d="M8060 10990 c0 -19 -17 -25 -61 -21 -9 1 -49 -9 -90 -22 -57 -19 -80
-22 -101 -15 -16 6 -28 14 -28 19 0 13 -63 27 -77 17 -7 -5 -14 -5 -18 2 -10
16 -35 -15 -35 -43 0 -14 -8 -28 -17 -32 -10 -4 -78 -7 -151 -5 -136 2 -176
-4 -317 -46 -68 -20 -105 -24 -242 -27 -108 -1 -164 -6 -167 -13 -3 -7 -55
-14 -138 -19 -74 -4 -148 -13 -167 -21 -18 -8 -43 -14 -54 -14 -12 0 -48 -13
-82 -29 -78 -38 -120 -50 -145 -44 -30 8 -24 23 10 23 27 0 70 32 70 52 0 10
-44 11 -54 1 -3 -4 -17 -8 -29 -10 -12 -2 -29 -12 -37 -22 -8 -10 -45 -28 -82
-40 -65 -22 -98 -26 -248 -36 -200 -13 -304 -29 -450 -71 -30 -9 -72 -20 -92
-25 -20 -5 -54 -20 -74 -34 -20 -14 -49 -25 -64 -25 -16 0 -49 -15 -76 -35
-27 -20 -57 -38 -66 -41 -9 -3 -19 -12 -22 -20 -3 -8 -12 -14 -20 -14 -9 0
-20 -9 -26 -20 -6 -11 -15 -18 -21 -15 -5 4 -9 2 -9 -2 0 -5 -14 -14 -31 -20
-17 -7 -33 -21 -36 -32 -3 -12 -13 -21 -22 -21 -19 0 -61 -40 -61 -57 0 -13
-28 -25 -40 -18 -4 3 -19 -7 -31 -21 -47 -51 -107 -97 -151 -115 -16 -6 -28
-15 -28 -19 0 -4 -20 -20 -45 -34 -25 -15 -45 -30 -45 -34 0 -4 -24 -23 -54
-41 -30 -18 -72 -52 -94 -77 -23 -24 -48 -44 -56 -44 -9 0 -16 -7 -16 -15 0
-8 -16 -29 -35 -48 -19 -19 -35 -41 -35 -49 0 -9 -7 -21 -15 -28 -8 -6 -17
-22 -21 -33 -4 -12 -17 -35 -30 -50 -13 -16 -24 -38 -24 -49 0 -12 -3 -18 -6
-15 -11 10 -44 -12 -44 -30 0 -12 3 -13 14 -4 8 7 16 8 19 4 7 -11 -27 -108
-44 -126 -8 -9 -34 -42 -59 -75 -25 -32 -58 -68 -75 -80 -16 -11 -50 -35 -74
-51 -24 -17 -57 -49 -73 -70 -16 -22 -35 -38 -42 -35 -19 7 -99 -85 -90 -105
25 -53 5 -287 -23 -277 -9 4 -13 -3 -13 -19 0 -13 -5 -27 -10 -30 -7 -4 -7
-12 0 -25 5 -10 10 -27 10 -37 0 -15 -2 -16 -10 -3 -7 11 -10 -2 -10 -45 -1
-33 -6 -80 -12 -105 -5 -25 -11 -72 -13 -105 -2 -68 -24 -175 -35 -175 -4 0
-8 -18 -8 -41 -1 -23 -7 -48 -15 -58 -7 -9 -33 -61 -57 -116 l-44 -100 -3
-355 c-2 -195 -4 -377 -4 -405 0 -27 9 -76 20 -108 27 -77 47 -223 32 -240 -7
-9 -5 -21 9 -42 26 -39 26 -71 0 -78 -11 -3 -22 -17 -25 -33 -11 -49 -25 -69
-56 -83 -37 -16 -53 -50 -34 -70 11 -11 3 -24 -51 -80 -50 -52 -64 -73 -64
-97 0 -35 40 -80 64 -71 20 8 33 -10 41 -58 5 -32 4 -37 -5 -25 -10 13 -11 12
-6 -3 3 -10 6 -22 6 -26 0 -4 16 -16 35 -27 39 -20 41 -24 23 -42 -10 -10 -7
-16 10 -28 16 -11 20 -19 13 -27 -11 -14 9 -47 28 -47 6 0 11 -14 11 -31 0
-17 5 -39 10 -49 7 -13 7 -21 0 -25 -5 -3 -10 -14 -10 -24 0 -10 -6 -24 -14
-30 -8 -7 -14 -20 -14 -29 1 -33 -21 -72 -37 -66 -9 4 -15 1 -15 -9 0 -10 -8
-13 -25 -9 -15 2 -25 0 -25 -7 0 -7 -4 -10 -9 -6 -5 3 -12 1 -16 -5 -3 -5 -15
-10 -25 -10 -10 0 -22 -5 -26 -11 -13 -21 21 -37 86 -40 85 -4 104 -13 89 -42
-7 -12 -25 -33 -40 -46 -16 -13 -29 -29 -29 -36 0 -7 -7 -18 -16 -26 -14 -11
-14 -13 1 -22 12 -6 15 -16 11 -33 -5 -19 -2 -24 13 -24 11 0 25 9 31 21 7 11
14 18 17 16 3 -3 -3 -19 -13 -36 -15 -25 -15 -32 -5 -45 8 -9 20 -16 28 -16
28 0 63 -32 63 -57 0 -18 -4 -24 -15 -20 -8 4 -17 2 -20 -3 -4 -6 0 -10 8 -10
8 0 17 -7 20 -14 4 -10 1 -13 -9 -9 -7 3 -14 1 -14 -5 0 -5 7 -12 15 -16 8 -3
15 -12 15 -20 0 -9 7 -12 20 -9 14 4 20 0 20 -11 0 -10 -8 -16 -21 -16 -17 0
-20 -5 -16 -21 4 -15 -1 -23 -20 -30 -14 -5 -33 -7 -43 -4 -9 3 -23 -1 -29 -9
-10 -12 -8 -16 11 -21 47 -13 78 -28 78 -36 0 -5 -7 -9 -15 -9 -19 0 -19 -10
1 -24 14 -11 14 -14 -3 -35 -16 -19 -22 -21 -46 -12 -16 6 -33 11 -38 11 -13
0 -11 -34 2 -47 8 -8 7 -17 -2 -31 -16 -26 -13 -29 31 -37 19 -3 43 -16 52
-28 9 -12 25 -22 34 -22 25 0 28 -22 4 -28 -21 -5 -21 -6 -3 -27 15 -17 19
-18 21 -5 2 8 11 16 20 16 9 1 49 3 87 4 39 2 75 4 80 5 50 11 73 -17 55 -65
-8 -22 -15 -26 -34 -21 -20 5 -24 2 -23 -17 0 -12 -3 -29 -7 -39 -5 -11 -2
-18 11 -22 33 -12 54 -33 47 -50 -9 -23 -27 -20 -21 3 7 30 -16 32 -60 5 -34
-20 -40 -28 -35 -49 3 -17 11 -25 26 -25 27 0 66 -27 66 -45 0 -23 30 -34 62
-23 24 8 32 7 46 -9 9 -11 25 -24 35 -29 9 -6 32 -34 51 -63 30 -46 35 -50 38
-30 l3 24 23 -25 c12 -13 25 -41 28 -62 4 -21 10 -38 14 -38 4 0 7 -15 6 -32
-1 -26 3 -33 17 -32 9 1 17 -2 17 -6 0 -13 41 1 47 16 4 10 16 4 44 -19 21
-17 39 -37 39 -43 0 -18 33 -42 63 -46 16 -2 47 -20 70 -41 37 -34 43 -36 54
-22 6 10 22 16 35 16 13 -1 50 -2 83 -3 l60 -1 6 139 c7 137 23 239 39 249 5
3 14 31 20 63 7 31 17 63 22 69 6 7 8 22 5 32 -3 11 0 22 6 24 5 1 11 25 12
52 1 28 7 64 14 80 8 19 14 91 16 198 2 92 7 172 11 178 3 6 1 15 -7 19 -7 5
-13 26 -13 48 -1 38 -6 44 -78 101 -42 33 -93 84 -113 113 -20 29 -68 100
-106 158 -39 58 -90 134 -115 170 -121 173 -156 250 -222 490 -123 440 -144
573 -123 750 14 115 62 287 95 338 51 81 154 163 241 193 43 14 229 18 278 5
23 -5 26 -10 18 -20 -9 -10 -7 -15 8 -19 11 -3 21 -1 23 4 2 4 9 5 16 0 9 -5
0 -19 -33 -50 -25 -23 -45 -44 -45 -46 0 -3 22 11 50 31 50 36 88 48 110 34 9
-6 9 -13 1 -29 -10 -17 -9 -21 3 -21 8 0 18 5 21 10 11 18 26 -1 19 -23 -6
-19 -5 -20 8 -9 15 12 48 7 48 -8 0 -4 -10 -19 -21 -34 -27 -34 -20 -42 14
-16 14 11 29 20 35 20 19 0 42 -38 42 -70 0 -27 3 -31 12 -22 21 21 45 13 73
-23 14 -20 35 -43 45 -53 10 -9 21 -31 24 -48 5 -23 12 -31 24 -27 11 3 24 -7
37 -29 15 -26 20 -29 23 -15 3 17 5 17 28 2 14 -9 29 -13 34 -10 5 3 20 -10
33 -30 13 -19 27 -32 30 -28 4 3 17 -2 28 -13 l22 -19 -6 37 c-5 32 -3 36 11
30 11 -4 7 6 -12 29 -35 40 -76 131 -75 162 0 19 2 18 12 -8 16 -40 47 -85 59
-85 8 0 6 15 -10 60 -4 11 0 10 16 -4 l21 -19 -19 41 c-11 23 -20 49 -20 60 0
10 -6 24 -12 31 -11 10 -10 11 5 6 9 -4 17 -15 17 -25 0 -10 7 -31 15 -47 21
-40 41 -92 54 -140 8 -30 16 -41 26 -37 9 4 27 -13 50 -44 36 -51 74 -79 60
-45 -26 61 -12 85 18 32 22 -40 34 -31 13 10 -16 31 -20 124 -4 115 13 -8 10
10 -4 24 -10 10 -10 15 2 22 10 7 12 12 4 18 -6 4 -14 29 -18 56 -6 35 -10 45
-17 35 -6 -10 -9 -3 -9 24 0 52 15 46 29 -10 7 -27 16 -55 21 -64 8 -15 15
-119 10 -144 -1 -5 -1 -14 0 -20 1 -5 3 -35 4 -65 2 -45 6 -56 22 -58 15 -3
17 -1 7 9 -7 7 -13 27 -13 44 1 26 2 28 13 14 11 -14 13 -7 12 41 0 32 -3 56
-7 54 -13 -9 -14 32 0 53 8 13 12 36 10 51 -6 39 18 61 37 36 17 -22 19 -40 6
-49 -5 -3 -12 3 -14 12 -3 10 -5 4 -6 -13 -1 -32 15 -54 44 -58 9 -1 27 -16
40 -32 26 -31 35 -21 10 12 -19 26 -20 55 0 48 8 -4 15 -1 15 5 0 7 11 0 25
-15 23 -25 25 -25 25 -7 0 14 -11 25 -31 34 -36 14 -58 58 -57 108 1 25 3 29
10 17 14 -24 26 -19 20 9 -2 14 -8 22 -12 20 -5 -3 -11 -1 -15 5 -8 13 6 111
15 105 8 -5 19 -49 26 -105 8 -55 14 -48 15 16 1 32 5 73 9 89 6 25 8 27 14
13 5 -10 12 -16 17 -13 11 7 28 -26 22 -43 -8 -20 6 -62 20 -62 9 0 12 30 13
107 2 111 19 231 35 248 15 16 11 48 -6 41 -10 -4 -15 1 -15 15 0 12 4 17 11
13 7 -4 9 0 5 12 -3 11 -2 33 3 49 l9 30 2 -30 c1 -23 8 -11 29 52 34 97 39
106 56 100 7 -3 19 9 28 29 9 19 23 34 30 34 7 0 21 13 30 29 10 17 25 32 35
35 9 3 22 16 27 28 6 12 23 26 38 31 29 9 137 109 137 127 0 5 4 9 8 7 10 -2
113 77 190 146 29 26 57 47 63 47 6 0 9 6 6 14 -7 18 12 43 43 59 15 7 26 23
28 37 2 20 1 22 -7 10 -6 -8 -11 -10 -11 -5 0 6 12 21 25 34 14 13 25 28 25
33 0 6 9 8 21 5 12 -3 19 -1 16 6 -2 6 5 20 14 31 10 10 16 23 13 28 -3 5 0
16 8 25 9 12 9 15 1 9 -7 -4 -13 -3 -13 1 0 13 94 103 108 103 7 0 12 13 12
31 0 16 4 28 9 25 10 -6 25 24 16 32 -3 3 -5 0 -5 -6 0 -7 -7 -12 -15 -12 -8
0 -20 -10 -26 -22 -6 -13 -20 -31 -30 -41 -17 -16 -19 -16 -19 -1 0 14 -3 14
-15 4 -9 -7 -13 -21 -10 -31 7 -22 -11 -34 -19 -13 -7 19 12 93 31 115 7 8 13
19 13 24 0 19 53 85 74 91 26 8 36 22 36 52 0 29 21 25 35 -6 12 -27 25 -29
18 -3 -4 18 -2 19 34 10 51 -11 63 -11 63 2 0 6 -6 9 -14 6 -18 -7 -33 10 -39
43 -4 25 -4 25 -6 -2 -1 -31 -12 -36 -31 -13 -10 13 -9 19 6 38 11 12 25 26
32 31 8 4 23 19 35 32 13 16 27 22 39 18 12 -3 18 0 18 9 0 22 -32 15 -60 -13
l-25 -25 -3 23 c-4 29 -22 18 -22 -14 0 -15 -11 -35 -27 -49 -33 -29 -53 -32
-53 -8 0 18 -13 10 -16 -11 -6 -42 -17 -56 -41 -56 -23 0 -24 2 -12 18 8 9 21
22 29 29 13 10 11 15 -13 37 l-29 27 21 42 c12 23 24 41 28 40 5 -1 7 8 5 21
-2 13 5 31 15 41 17 17 18 17 23 -5 7 -30 30 -38 30 -11 0 39 27 22 35 -21 6
-36 8 -39 15 -23 5 11 9 29 9 40 1 11 5 26 10 34 8 13 12 13 27 0 10 -8 15 -9
11 -2 -4 7 4 23 20 39 23 23 28 25 33 10 5 -14 11 -11 37 19 17 19 36 35 42
35 6 0 11 5 11 10 0 6 8 10 17 8 12 -2 28 14 49 50 18 29 35 52 38 50 3 -2 13
7 21 20 9 12 20 20 25 17 4 -3 10 0 12 7 5 13 48 22 48 9 0 -4 -7 -22 -16 -40
-8 -17 -14 -37 -11 -44 2 -6 14 9 27 36 12 26 24 47 26 47 3 0 9 -10 15 -22 8
-19 8 -16 4 13 -5 33 -3 36 17 35 14 -1 28 7 35 19 12 19 12 19 13 -5 0 -15
-4 -30 -9 -35 -14 -14 -31 -96 -19 -89 6 4 8 -4 6 -17 -1 -13 -7 -22 -12 -21
-12 5 -26 -18 -26 -42 0 -15 3 -16 15 -6 21 17 29 7 21 -25 -5 -19 -12 -25
-22 -21 -12 4 -14 1 -9 -14 5 -15 0 -23 -20 -32 -21 -10 -23 -13 -10 -20 8 -5
15 -16 15 -24 0 -8 -4 -13 -9 -9 -14 8 -61 -39 -61 -62 0 -11 7 -20 16 -20 11
0 14 7 10 26 l-6 26 15 -25 c10 -17 14 -20 15 -9 0 15 48 34 59 24 1 -2 -13
-19 -33 -37 -39 -36 -44 -48 -21 -48 12 0 13 -3 3 -19 -15 -24 -53 -37 -44
-15 21 52 21 50 1 31 -10 -10 -29 -23 -42 -28 -28 -10 -31 -29 -3 -22 14 4 20
0 20 -11 0 -9 -3 -16 -7 -16 -5 0 -14 -4 -22 -9 -12 -8 -12 -12 2 -25 19 -20
27 -20 27 -2 0 8 8 13 17 12 10 0 19 9 23 24 4 16 14 26 29 28 l24 4 -24 -33
c-12 -18 -17 -29 -10 -24 9 5 12 3 9 -5 -2 -8 -12 -18 -22 -24 -20 -13 -96
-86 -96 -93 0 -3 7 0 15 7 11 9 15 9 15 1 0 -12 -38 -51 -74 -77 -11 -7 -17
-17 -13 -20 4 -4 12 -2 19 4 7 6 15 10 18 10 3 -1 24 9 47 21 23 11 44 21 47
21 3 0 3 -17 0 -37 -4 -36 -4 -36 8 7 10 33 21 48 42 58 15 8 36 21 45 31 46
45 105 91 115 91 7 0 22 13 34 30 15 19 28 27 38 23 13 -5 15 -2 9 15 -4 13
-2 22 4 22 6 0 11 -5 11 -11 0 -5 5 -7 10 -4 6 4 8 10 5 14 -5 9 39 72 59 83
10 6 13 3 9 -11 -3 -10 0 -22 6 -25 6 -4 13 4 17 18 3 13 12 27 21 30 8 3 12
9 10 14 -11 17 43 62 76 62 16 0 20 -61 3 -72 -19 -13 4 -23 24 -10 40 25 42
2 4 -32 -16 -13 -24 -28 -21 -37 4 -10 8 -8 12 9 4 12 15 22 26 22 11 0 19 7
19 15 0 8 6 15 13 15 7 0 18 9 25 20 7 11 19 20 27 20 8 0 15 7 15 15 0 8 5
15 10 15 6 0 10 -9 10 -20 0 -23 7 -19 62 35 19 18 28 23 25 13 -4 -12 -2 -15
8 -12 8 3 11 12 8 20 -3 8 -1 14 5 14 5 0 12 -7 16 -15 3 -8 10 -15 15 -15 6
0 8 6 5 14 -4 10 2 14 18 13 13 0 29 2 37 4 10 3 17 -6 21 -26 l7 -30 13 27
c13 28 48 46 98 50 6 1 12 5 12 9 0 16 43 4 48 -13 2 -10 8 -15 13 -13 4 3 6
12 2 20 -3 8 0 15 6 15 9 0 10 18 5 63 -6 53 -5 60 7 51 37 -30 65 -17 85 39
6 17 12 19 69 21 23 1 34 8 45 31 14 27 19 30 63 29 58 0 78 22 56 62 -14 27
-6 42 14 26 17 -15 27 -6 27 25 0 24 14 31 26 12 3 -6 1 -16 -5 -22 -6 -6 -11
-15 -11 -21 0 -5 9 1 20 14 11 12 17 27 14 31 -3 5 4 9 16 9 11 0 23 -7 27
-16 5 -13 7 -13 14 -2 5 7 16 13 26 14 10 1 28 4 41 8 21 7 22 5 16 -21 -6
-26 -5 -27 11 -12 13 13 21 14 41 5 13 -6 24 -18 24 -28 0 -14 5 -15 37 -5 28
9 37 9 41 -1 2 -7 8 -9 14 -6 6 4 8 -1 3 -15 -5 -16 -3 -20 9 -15 11 4 16 0
16 -11 0 -11 5 -15 15 -11 10 3 15 -1 15 -12 0 -15 2 -15 11 -2 8 12 9 11 4
-6 -3 -13 1 -26 10 -34 10 -8 15 -9 15 -1 0 6 5 11 10 11 6 0 10 -7 10 -15 0
-17 26 -20 35 -4 4 6 13 8 21 5 7 -3 16 -1 20 5 4 6 11 6 20 -2 8 -6 14 -9 14
-7 0 3 18 -12 40 -32 22 -20 40 -40 40 -44 0 -3 12 -20 28 -37 47 -53 142
-183 142 -195 0 -6 7 -18 17 -25 9 -8 28 -33 42 -55 14 -23 57 -77 95 -120 67
-77 113 -151 178 -286 24 -48 38 -66 50 -64 27 4 31 12 33 69 1 53 24 104 40
89 4 -4 5 4 1 18 -4 14 -11 56 -16 93 -6 49 -14 74 -29 88 -15 14 -21 32 -21
59 0 22 -4 40 -9 40 -5 0 -14 15 -21 33 -6 17 -18 48 -25 67 -7 19 -23 69 -36
110 -29 100 -52 160 -61 160 -5 0 -8 16 -8 35 0 27 -7 39 -30 57 -16 12 -30
29 -30 39 0 9 -7 19 -15 23 -12 4 -14 15 -9 48 4 33 3 40 -6 28 -8 -12 -10 -7
-9 25 6 103 1 121 -36 141 -19 10 -35 25 -35 32 0 7 -4 11 -9 8 -11 -7 -21 17
-21 50 0 14 -4 23 -10 19 -5 -3 -7 -12 -3 -20 3 -8 2 -23 -2 -32 -7 -16 -9
-14 -15 7 -4 15 -13 24 -22 22 -12 -2 -14 4 -10 25 3 16 7 23 9 16 7 -20 43 8
43 34 0 33 -19 75 -30 68 -6 -4 -7 5 -4 23 6 32 -11 72 -45 109 -12 12 -21 27
-21 32 0 6 -6 14 -13 18 -23 15 -42 62 -29 75 8 8 15 7 26 -4 8 -9 12 -18 9
-22 -3 -3 0 -12 6 -20 7 -8 10 -20 6 -26 -12 -19 25 -23 39 -4 12 16 11 20
-10 37 -13 10 -24 23 -24 29 0 17 -64 79 -77 74 -15 -6 -32 21 -26 43 2 9 -9
31 -26 49 -17 17 -31 36 -31 42 0 5 -4 10 -10 10 -5 0 -10 9 -10 20 0 11 -7
20 -15 20 -8 0 -15 6 -15 14 0 8 -15 19 -32 25 -33 11 -108 75 -108 91 0 5
-11 12 -23 15 -15 4 -29 19 -37 39 -9 23 -23 37 -49 46 -20 8 -40 13 -45 12
-5 -2 -17 4 -26 13 -15 13 -23 14 -40 5 -21 -11 -22 -10 -16 22 7 31 6 32 -8
14 -14 -18 -19 -18 -56 -6 -22 7 -40 17 -40 22 0 4 -6 8 -14 8 -8 0 -22 7 -30
16 -9 9 -24 13 -35 9 -10 -3 -23 1 -30 9 -19 23 4 29 60 16 49 -12 80 -7 43 7
-10 4 -23 13 -29 20 -6 8 -23 12 -43 9 -18 -2 -35 1 -38 5 -3 5 -10 6 -16 3
-6 -4 -14 0 -19 7 -7 11 -11 10 -23 -6 -14 -19 -15 -19 -16 -2 0 17 -14 18
-247 16 -167 -1 -250 -6 -255 -13 -4 -6 -8 1 -8 17 0 15 -4 27 -10 27 -5 0
-10 -9 -10 -20z m500 -40 c0 -5 -9 -10 -20 -10 -11 0 -20 5 -20 10 0 6 9 10
20 10 11 0 20 -4 20 -10z m-2810 -390 c0 -5 -4 -10 -10 -10 -5 0 -10 5 -10 10
0 6 5 10 10 10 6 0 10 -4 10 -10z m-1190 -683 c0 -18 -2 -19 -10 -7 -13 20
-13 43 0 35 6 -3 10 -16 10 -28z m2060 -91 c0 -3 -4 -8 -10 -11 -5 -3 -10 -1
-10 4 0 6 5 11 10 11 6 0 10 -2 10 -4z m-60 -26 c0 -5 -5 -10 -11 -10 -5 0 -7
5 -4 10 3 6 8 10 11 10 2 0 4 -4 4 -10z m245 -140 c3 -5 1 -10 -4 -10 -6 0
-11 5 -11 10 0 6 2 10 4 10 3 0 8 -4 11 -10z m-415 -4 c0 -3 -4 -8 -10 -11 -5
-3 -10 -1 -10 4 0 6 5 11 10 11 6 0 10 -2 10 -4z m1161 -20 c12 7 11 -7 -1
-26 -6 -9 -10 -10 -10 -3 0 6 -2 17 -3 25 -2 7 -2 10 0 5 3 -4 9 -5 14 -1z
m-2160 -53 c-8 -15 -10 -15 -11 -2 0 17 10 32 18 25 2 -3 -1 -13 -7 -23z
m2065 -40 c3 -26 -22 -39 -29 -14 -2 9 -2 32 1 51 5 34 5 34 15 10 5 -14 11
-35 13 -47z m-150 32 c-9 -9 -16 -13 -16 -8 0 12 22 34 28 28 2 -2 -3 -11 -12
-20z m221 3 c-3 -8 -6 -5 -6 6 -1 11 2 17 5 13 3 -3 4 -12 1 -19z m-2697 2 c0
-5 -5 -10 -11 -10 -5 0 -7 5 -4 10 3 6 8 10 11 10 2 0 4 -4 4 -10z m2426 -37
c-3 -4 -6 -1 -6 6 0 7 -4 9 -10 6 -6 -4 -7 1 -3 11 6 15 7 15 15 -1 6 -9 7
-19 4 -22z m231 5 c-3 -7 -5 -2 -5 12 0 14 2 19 5 13 2 -7 2 -19 0 -25z m-82
-25 c-4 -16 -2 -22 5 -18 19 12 10 -14 -16 -42 l-26 -28 7 25 c4 14 9 42 12
62 3 21 9 35 15 32 5 -3 7 -17 3 -31z m-2695 13 c0 -3 -4 -8 -10 -11 -5 -3
-10 -1 -10 4 0 6 5 11 10 11 6 0 10 -2 10 -4z m3820 -17 c-7 -11 -14 -18 -17
-15 -8 8 5 36 17 36 7 0 7 -6 0 -21z m-1150 -6 c0 -5 -5 -15 -10 -23 -8 -12
-10 -11 -10 8 0 12 5 22 10 22 6 0 10 -3 10 -7z m-2710 -23 c0 -5 -5 -10 -11
-10 -5 0 -7 5 -4 10 3 6 8 10 11 10 2 0 4 -4 4 -10z m2410 -4 c0 -3 -4 -8 -10
-11 -5 -3 -10 -1 -10 4 0 6 5 11 10 11 6 0 10 -2 10 -4z m1240 -48 c0 -30 -1
-31 -16 -16 -9 9 -14 24 -11 32 11 27 27 17 27 -16z m-1230 15 c0 -5 -5 -15
-10 -23 -8 -12 -10 -11 -10 8 0 12 5 22 10 22 6 0 10 -3 10 -7z m-60 -19 c0
-26 -31 -83 -43 -79 -6 3 -32 -13 -56 -35 -46 -43 -64 -47 -37 -8 23 32 20 45
-4 17 -16 -20 -19 -21 -20 -6 0 9 -4 17 -10 17 -5 0 -10 5 -10 10 0 6 5 10 12
10 6 0 23 10 36 23 l24 22 -7 -25 -7 -25 21 28 c26 32 41 35 41 7 0 -11 5 -20
10 -20 6 0 10 18 10 39 0 34 3 40 20 38 11 -1 20 -6 20 -13z m-2499 -31 c-10
-17 -10 -16 -11 3 0 23 13 41 18 25 2 -6 -1 -18 -7 -28z m2869 18 c0 -5 -4
-11 -8 -13 -5 -1 -12 -18 -15 -37 -6 -30 -5 -32 10 -20 14 12 16 12 11 -1 -2
-8 -12 -16 -21 -18 -13 -3 -17 4 -17 28 0 17 5 40 10 51 11 20 30 26 30 10z
m-2757 -21 c-3 -11 -9 -20 -15 -20 -5 0 -4 9 2 20 6 11 12 20 14 20 2 0 2 -9
-1 -20z m519 -22 c-7 -7 -12 -8 -12 -2 0 14 12 26 19 19 2 -3 -1 -11 -7 -17z
m2335 -10 c-3 -7 -5 -2 -5 12 0 14 2 19 5 13 2 -7 2 -19 0 -25z m833 6 c0 -8
-4 -12 -10 -9 -5 3 -10 10 -10 16 0 5 5 9 10 9 6 0 10 -7 10 -16z m-3840 -75
l-20 -34 6 35 c4 19 12 46 17 60 l11 25 3 -26 c3 -15 -5 -41 -17 -60z m1530
66 c0 -2 -10 -10 -22 -16 -21 -11 -22 -11 -9 4 13 16 31 23 31 12z m1698 -33
c-8 -9 -14 -9 -24 -1 -11 9 -14 7 -14 -10 0 -11 -4 -21 -10 -21 -19 0 -10 42
10 47 11 3 20 9 20 15 0 5 6 3 14 -4 10 -9 11 -17 4 -26z m563 24 c5 3 8 -7 8
-23 -1 -19 -3 -22 -6 -9 -4 15 -7 16 -14 5 -6 -10 -9 -5 -8 16 0 17 3 24 6 17
2 -6 9 -10 14 -6z m-3319 -28 c-7 -7 -12 -8 -12 -2 0 14 12 26 19 19 2 -3 -1
-11 -7 -17z m1878 6 c0 -8 -5 -12 -10 -9 -6 4 -8 11 -5 16 9 14 15 11 15 -7z
m652 -36 c-7 -7 -12 -8 -12 -2 0 14 12 26 19 19 2 -3 -1 -11 -7 -17z m68 -6
c0 -13 -63 -92 -73 -92 -13 0 -5 15 32 59 36 42 41 47 41 33z m-224 -37 c-21
-16 -32 -13 -21 4 3 6 14 11 23 11 15 -1 15 -2 -2 -15z m-3116 -44 c0 -5 -7
-12 -16 -15 -14 -5 -15 -4 -4 9 14 17 20 19 20 6z m2457 -48 c-3 -10 -5 -2 -5
17 0 19 2 27 5 18 2 -10 2 -26 0 -35z m793 18 c0 -4 -12 -21 -26 -37 -14 -16
-24 -24 -22 -19 2 6 10 25 17 42 11 29 31 37 31 14z m48 -10 c-26 -34 -44 -41
-28 -11 9 16 36 39 48 40 2 0 -7 -13 -20 -29z m-2612 -16 c-9 -14 -22 -25 -28
-25 -7 0 -2 9 10 20 12 12 22 26 22 32 0 6 3 8 6 5 4 -4 -1 -18 -10 -32z
m2423 -46 c-11 -11 -23 -18 -26 -15 -9 8 17 36 33 36 10 0 7 -7 -7 -21z m111
-24 c-21 -26 -31 -16 -13 11 9 15 19 21 21 15 2 -6 -2 -18 -8 -26z m-2941 -19
c1 -6 -5 -1 -13 9 -8 11 -12 24 -8 29 5 9 20 -17 21 -38z m2837 -12 c-11 -7
-22 -11 -25 -8 -3 3 3 12 13 20 11 7 22 11 25 8 3 -3 -3 -12 -13 -20z m-696
-41 c0 -32 -5 -65 -10 -73 -7 -10 -10 7 -10 58 0 41 4 72 10 72 6 0 10 -26 10
-57z m-2183 25 c-3 -8 -6 -5 -6 6 -1 11 2 17 5 13 3 -3 4 -12 1 -19z m2933
-14 c0 -19 -14 -40 -49 -73 -75 -71 -121 -109 -121 -100 0 4 5 11 10 14 21 13
9 25 -12 14 -23 -12 -23 -12 -4 10 11 11 24 20 30 19 17 -4 90 67 112 107 22
42 34 45 34 9z m-2891 -66 c-5 -10 -11 -18 -13 -18 -2 0 -6 8 -8 18 -4 12 1
18 13 18 14 0 15 -4 8 -18z m2241 -8 c0 -13 -28 -25 -38 -16 -3 4 0 11 8 16
20 13 30 12 30 0z m-2090 -20 c0 -5 -5 -10 -11 -10 -5 0 -7 5 -4 10 3 6 8 10
11 10 2 0 4 -4 4 -10z m1930 0 c0 -5 -4 -10 -10 -10 -5 0 -10 5 -10 10 0 6 5
10 10 10 6 0 10 -4 10 -10z m-80 -30 c0 -5 -4 -10 -10 -10 -5 0 -10 5 -10 10
0 6 5 10 10 10 6 0 10 -4 10 -10z m-793 -32 c-3 -8 -6 -5 -6 6 -1 11 2 17 5
13 3 -3 4 -12 1 -19z m1498 -38 c-3 -5 -12 -10 -18 -10 -7 0 -6 4 3 10 19 12
23 12 15 0z m-3628 -112 c-3 -7 -5 -2 -5 12 0 14 2 19 5 13 2 -7 2 -19 0 -25z
m2704 -11 c-10 -9 -11 -8 -5 6 3 10 9 15 12 12 3 -3 0 -11 -7 -18z m-711 -63
c-10 -21 -19 -33 -20 -26 0 15 32 74 37 68 2 -1 -6 -20 -17 -42z m1020 36 c0
-5 -4 -10 -10 -10 -5 0 -10 5 -10 10 0 6 5 10 10 10 6 0 10 -4 10 -10z m-2687
-105 c-7 -21 -13 -19 -13 6 0 11 4 18 10 14 5 -3 7 -12 3 -20z m662 -22 c-9
-15 -13 -19 -10 -8 4 11 10 29 13 40 3 11 7 14 9 8 3 -7 -3 -24 -12 -40z m-82
-203 c-7 -28 -13 -25 -13 6 0 14 4 23 9 20 5 -3 7 -15 4 -26z m-393 -197 c-1
-27 -1 -27 -15 -9 -12 16 -12 22 -2 28 17 11 17 11 17 -19z m-509 -24 c-6 -16
-10 -18 -10 -7 -1 22 12 55 16 42 2 -6 -1 -22 -6 -35z m649 -39 c-6 -11 -13
-20 -16 -20 -2 0 0 9 6 20 6 11 13 20 16 20 2 0 0 -9 -6 -20z m-185 0 c3 -5 1
-10 -4 -10 -6 0 -11 5 -11 10 0 6 2 10 4 10 3 0 8 -4 11 -10z m-498 -97 c-3
-10 -5 -4 -5 12 0 17 2 24 5 18 2 -7 2 -21 0 -30z m463 -48 c0 -8 -4 -15 -10
-15 -5 0 -7 7 -4 15 4 8 8 15 10 15 2 0 4 -7 4 -15z m1702 -386 c6 -4 6 -13 0
-25 -5 -11 -16 -32 -23 -47 -7 -16 -15 -24 -17 -19 -2 6 4 24 12 41 19 35 22
65 5 41 -9 -12 -10 -12 -5 3 3 10 7 31 7 45 2 26 2 26 6 -3 3 -16 9 -33 15
-36z m-105 -31 c-3 -8 -6 -5 -6 6 -1 11 2 17 5 13 3 -3 4 -12 1 -19z m3 -58
c0 -16 -4 -30 -10 -30 -11 0 -14 43 -3 53 11 12 13 8 13 -23z m-60 -63 c0 -12
4 -16 13 -11 7 5 6 0 -3 -10 -14 -18 -15 -18 -21 5 -4 13 -7 33 -8 44 -1 16 1
17 9 5 5 -8 10 -23 10 -33z m100 -5 c0 -15 -2 -15 -10 -2 -13 20 -13 33 0 25
6 -3 10 -14 10 -23z m-50 -24 c-1 -18 -8 -44 -16 -58 -15 -25 -15 -24 -10 15
3 22 6 48 6 58 0 9 5 17 10 17 6 0 10 -15 10 -32z m-103 -91 c-8 -39 -10 -72
-5 -81 5 -9 5 -23 0 -33 -9 -15 -10 -14 -16 3 -7 22 10 169 21 187 13 22 14
-10 0 -76z m146 58 c3 -16 0 -24 -7 -22 -14 4 -21 47 -8 47 5 0 12 -11 15 -25z
m-192 -43 c2 -23 0 -45 -4 -48 -4 -4 -7 17 -7 46 0 62 8 64 11 2z m-17 -127
c5 -37 4 -36 -14 14 -12 32 -17 64 -13 75 5 18 8 15 14 -14 4 -19 9 -53 13
-75z m-84 32 c0 -5 -4 -6 -9 -3 -5 3 -11 -8 -15 -26 -3 -17 -9 -29 -12 -26 -3
4 0 25 7 47 8 28 15 38 21 29 4 -7 8 -17 8 -21z m179 -45 c1 -7 -3 -10 -9 -7
-5 3 -10 18 -9 33 0 24 1 25 9 7 5 -11 9 -26 9 -33z m-372 6 c-3 -8 -6 -5 -6
6 -1 11 2 17 5 13 3 -3 4 -12 1 -19z m149 -65 c8 -17 14 -42 15 -55 0 -21 1
-22 8 -3 7 18 9 17 25 -12 19 -38 13 -113 -10 -113 -8 0 -11 6 -7 17 4 10 2
14 -4 10 -7 -4 -13 17 -18 58 -3 36 -13 72 -21 79 -8 8 -14 30 -13 48 0 18 3
26 6 18 2 -8 11 -29 19 -47z m135 -26 c3 -60 -7 -70 -20 -22 -7 26 -7 44 0 57
14 27 18 20 20 -35z m96 -9 c-3 -8 -6 -5 -6 6 -1 11 2 17 5 13 3 -3 4 -12 1
-19z m10 -55 c-3 -10 -5 -4 -5 12 0 17 2 24 5 18 2 -7 2 -21 0 -30z m-277 -4
c0 -11 -4 -17 -10 -14 -5 3 -10 13 -10 21 0 8 5 14 10 14 6 0 10 -9 10 -21z
m-246 -34 c3 -8 1 -15 -4 -15 -6 0 -10 7 -10 15 0 8 2 15 4 15 2 0 6 -7 10
-15z m276 -13 c0 -15 -2 -15 -10 -2 -13 20 -13 33 0 25 6 -3 10 -14 10 -23z
m-175 -52 c8 -16 15 -33 15 -37 -1 -13 -40 41 -40 55 0 20 9 14 25 -18z m222
-22 c-3 -8 -6 -5 -6 6 -1 11 2 17 5 13 3 -3 4 -12 1 -19z m-2140 -564 c-3 -3
-12 -4 -19 -1 -8 3 -5 6 6 6 11 1 17 -2 13 -5z m63 -214 c0 -5 -4 -10 -10 -10
-5 0 -10 5 -10 10 0 6 5 10 10 10 6 0 10 -4 10 -10z m73 -580 c-7 -28 -13 -25
-13 6 0 14 4 23 9 20 5 -3 7 -15 4 -26z"/>
<path d="M8805 10900 c3 -5 8 -10 11 -10 2 0 4 5 4 10 0 6 -5 10 -11 10 -5 0
-7 -4 -4 -10z"/>
<path d="M8478 9375 c-3 -16 -1 -25 7 -25 8 0 10 9 7 25 -2 14 -6 25 -7 25 -1
0 -5 -11 -7 -25z"/>
<path d="M7291 9364 c0 -11 3 -14 6 -6 3 7 2 16 -1 19 -3 4 -6 -2 -5 -13z"/>
<path d="M8610 9369 c0 -5 5 -7 10 -4 6 3 10 8 10 11 0 2 -4 4 -10 4 -5 0 -10
-5 -10 -11z"/>
<path d="M8360 9313 c0 -24 4 -43 8 -43 16 0 47 28 40 36 -4 4 -2 14 5 22 10
13 9 14 -8 5 -15 -9 -22 -8 -32 5 -11 15 -12 11 -13 -25z"/>
<path d="M7210 9279 c0 -5 5 -7 10 -4 6 3 10 8 10 11 0 2 -4 4 -10 4 -5 0 -10
-5 -10 -11z"/>
<path d="M7169 9253 c-13 -16 -12 -17 4 -4 9 7 17 15 17 17 0 8 -8 3 -21 -13z"/>
<path d="M7051 9223 c-13 -27 -13 -28 8 -9 11 10 18 23 15 27 -8 13 -10 12
-23 -18z"/>
<path d="M7026 9223 c-6 -14 -5 -15 5 -6 7 7 10 15 7 18 -3 3 -9 -2 -12 -12z"/>
<path d="M8333 9155 c0 -33 2 -45 4 -27 2 18 2 45 0 60 -2 15 -4 0 -4 -33z"/>
<path d="M6793 9143 c-13 -5 -19 -33 -7 -33 3 0 12 6 20 14 23 23 17 32 -13
19z"/>
<path d="M7711 9103 c0 -16 3 -22 6 -13 3 8 10 21 16 28 7 8 5 12 -7 12 -11 0
-16 -8 -15 -27z"/>
<path d="M6962 9100 c-18 -29 -15 -38 4 -12 9 13 14 25 12 27 -2 2 -9 -5 -16
-15z"/>
<path d="M6740 9079 c0 -5 5 -7 10 -4 6 3 10 8 10 11 0 2 -4 4 -10 4 -5 0 -10
-5 -10 -11z"/>
<path d="M7166 9054 c-11 -7 -17 -16 -15 -19 3 -3 14 2 25 9 10 8 17 17 14 19
-3 3 -14 -1 -24 -9z"/>
<path d="M7588 9048 c-8 -20 1 -58 13 -58 10 0 10 14 0 50 -6 20 -8 22 -13 8z"/>
<path d="M7615 9040 c-3 -5 1 -10 10 -10 9 0 13 5 10 10 -3 6 -8 10 -10 10 -2
0 -7 -4 -10 -10z"/>
<path d="M8321 9043 c0 -6 -4 -20 -7 -30 -5 -14 -4 -15 5 -7 7 7 11 20 8 30
-3 11 -5 14 -6 7z"/>
<path d="M7120 9015 c-7 -9 -11 -18 -8 -20 3 -3 11 1 18 10 7 9 11 18 8 20 -3
3 -11 -1 -18 -10z"/>
<path d="M6967 8993 c-4 -3 -7 -11 -7 -17 0 -6 5 -5 12 2 6 6 9 14 7 17 -3 3
-9 2 -12 -2z"/>
<path d="M6937 8936 c-4 -10 -1 -13 9 -9 7 3 14 9 14 14 0 14 -17 10 -23 -5z"/>
<path d="M10004 8874 c5 -11 13 -35 19 -54 6 -22 12 -29 14 -18 6 25 -11 81
-27 86 -9 3 -11 0 -6 -14z"/>
<path d="M6761 8843 c-9 -10 -10 -18 -3 -25 7 -7 12 -3 17 12 9 27 4 32 -14
13z"/>
<path d="M6720 8823 c0 -11 -7 -23 -15 -27 -8 -3 -15 -13 -14 -23 0 -11 3 -13
6 -5 2 6 11 12 18 12 16 0 28 41 15 54 -7 7 -10 3 -10 -11z"/>
<path d="M6656 8743 c-6 -14 -5 -15 5 -6 7 7 10 15 7 18 -3 3 -9 -2 -12 -12z"/>
<path d="M7060 8741 c0 -5 -15 -16 -32 -25 l-33 -17 30 6 c32 7 55 22 55 36 0
5 -4 9 -10 9 -5 0 -10 -4 -10 -9z"/>
<path d="M6734 8701 c4 -5 0 -11 -6 -14 -7 -2 -10 -8 -6 -12 10 -10 40 14 32
26 -3 5 -10 9 -15 9 -6 0 -8 -4 -5 -9z"/>
<path d="M6955 8700 c-19 -8 -19 -9 3 -9 12 -1 22 4 22 9 0 6 -1 10 -2 9 -2 0
-12 -4 -23 -9z"/>
<path d="M6783 8683 c-7 -2 -13 -8 -13 -12 0 -11 32 -7 55 7 19 11 19 11 -5
11 -14 0 -31 -3 -37 -6z"/>
<path d="M9693 8592 c6 -8 38 -35 72 -60 33 -25 64 -52 68 -59 14 -22 27 -14
27 17 0 17 -3 29 -7 28 -13 -3 -63 25 -63 34 0 5 -4 7 -9 4 -5 -3 -12 5 -15
19 -6 24 -26 36 -26 15 0 -5 5 -10 12 -10 6 0 8 -3 5 -6 -9 -9 -38 16 -31 27
3 5 -6 8 -20 7 -20 -2 -23 -5 -13 -16z"/>
<path d="M9195 8310 c-4 -12 -13 -19 -20 -17 -17 7 -35 -12 -28 -31 4 -10 2
-13 -5 -8 -7 4 -12 1 -12 -8 0 -9 -4 -16 -10 -16 -5 0 -10 5 -10 11 0 5 -5 7
-10 4 -6 -3 -7 -17 -4 -31 5 -20 2 -24 -15 -24 -21 0 -71 44 -71 62 0 4 -8 3
-18 -3 -14 -9 -23 -9 -38 0 -17 11 -16 12 9 8 21 -3 25 -1 17 8 -12 15 -79 25
-86 13 -3 -4 -16 -8 -29 -8 -17 0 -23 -4 -19 -14 4 -11 -7 -16 -43 -21 -26 -4
-63 -16 -81 -26 -18 -10 -40 -19 -48 -19 -8 0 -14 -4 -14 -10 0 -5 -8 -10 -17
-10 -14 1 -11 6 12 26 22 19 24 23 7 14 -12 -6 -28 -10 -35 -8 -16 3 -93 -28
-102 -42 -10 -16 -28 -12 -21 6 5 12 1 14 -17 8 -12 -3 -30 -13 -39 -22 -13
-10 -18 -11 -18 -3 0 22 -45 8 -48 -15 -2 -16 -10 -20 -40 -20 -54 1 -68 13
-40 36 16 13 27 15 35 8 18 -15 37 0 22 18 -8 10 -8 14 0 14 6 0 11 5 11 10 0
6 -13 10 -30 10 -17 0 -30 5 -30 13 -1 7 -6 4 -15 -7 -7 -10 -18 -15 -23 -12
-16 10 -40 -4 -46 -27 -5 -17 -8 -19 -15 -8 -5 8 -14 10 -21 6 -7 -4 -16 -2
-20 5 -6 10 -17 11 -49 3 -23 -6 -44 -7 -46 -2 -3 4 -15 -1 -27 -13 -16 -16
-18 -22 -7 -29 8 -5 18 -9 22 -9 5 0 5 -4 2 -10 -3 -5 -21 -10 -38 -10 -20 0
-39 -8 -50 -20 -9 -11 -26 -20 -38 -20 -15 0 -19 -4 -15 -16 3 -9 6 -18 6 -20
0 -11 49 -2 53 11 6 15 67 17 67 2 0 -4 12 -5 28 -1 l27 6 -25 -16 c-14 -9
-33 -18 -42 -22 -9 -3 -14 -12 -11 -20 3 -8 0 -20 -5 -27 -9 -10 -4 -13 23
-13 19 0 35 4 35 8 0 4 10 7 23 7 16 -1 18 -2 5 -6 -34 -9 -18 -20 20 -13 45
7 98 -7 130 -37 13 -12 45 -27 73 -34 29 -8 49 -18 49 -27 0 -9 7 -11 20 -7
12 4 20 2 20 -5 0 -8 11 -10 34 -6 28 5 34 3 39 -13 2 -10 2 -23 -2 -28 -7
-11 -55 -24 -86 -24 -10 0 -24 -4 -30 -9 -6 -5 -24 -8 -40 -8 -17 0 -50 -9
-75 -20 -59 -27 -94 -38 -151 -47 -124 -19 -579 -204 -579 -235 0 -16 17 -12
70 15 27 14 54 25 60 25 6 0 56 22 113 49 169 81 286 110 458 112 70 1 112 -4
164 -20 85 -25 100 -34 92 -54 -5 -14 -12 -14 -56 -2 -28 7 -51 10 -51 5 0 -7
-31 -15 -95 -26 -28 -5 -48 -10 -65 -17 -8 -3 -52 -15 -97 -26 -45 -10 -101
-28 -125 -39 -57 -27 -174 -72 -187 -72 -6 0 -34 -14 -63 -31 -29 -17 -59 -34
-67 -38 -31 -16 -21 -28 21 -27 24 1 48 -2 54 -7 7 -4 18 -2 25 5 8 8 27 15
43 16 17 1 32 6 35 10 11 14 34 7 42 -13 7 -19 8 -19 8 2 1 24 23 43 29 25 6
-20 20 -13 24 11 2 18 9 22 36 21 22 0 32 5 32 15 1 14 3 13 14 -1 7 -10 19
-18 26 -18 9 0 10 3 1 13 -6 8 -8 16 -5 20 8 7 36 -3 49 -19 6 -7 20 -15 32
-18 18 -6 20 -4 16 13 -3 12 -2 28 1 37 6 15 8 15 31 0 20 -13 25 -14 32 -2 8
14 77 26 87 15 3 -2 15 -54 27 -114 16 -83 26 -114 43 -127 l21 -18 -25 -1
c-15 -1 -19 -3 -9 -6 10 -2 19 -13 22 -24 6 -23 -6 -25 -23 -4 -7 8 -20 15
-29 15 -9 0 -22 5 -29 12 -18 18 -34 -4 -34 -48 0 -52 -6 -59 -29 -35 -11 12
-24 21 -30 21 -16 0 -23 -31 -8 -41 19 -12 2 -11 -20 1 -21 11 -61 -12 -61
-36 0 -18 -14 -18 -30 1 -13 16 -50 21 -50 6 0 -5 10 -11 22 -14 21 -6 21 -7
4 -26 -17 -18 -16 -20 2 -38 10 -10 27 -30 37 -45 15 -25 23 -28 71 -28 52 0
80 -15 49 -26 -16 -7 -17 -34 0 -46 12 -9 137 2 151 14 6 4 32 10 57 12 25 2
53 10 61 19 8 8 36 18 61 21 26 4 49 14 52 22 3 8 12 14 20 14 10 0 13 7 9 23
-3 12 -3 17 0 10 4 -8 14 -7 36 5 63 34 70 44 66 111 -1 33 -7 61 -12 61 -5 0
-1 9 8 19 10 11 16 30 14 43 -2 18 2 24 20 26 17 3 21 8 17 22 -8 24 1 29 67
34 55 5 108 36 108 64 0 6 7 9 15 6 8 -4 15 -1 15 4 0 17 45 59 58 54 7 -2 12
4 12 12 0 9 7 19 15 22 9 4 13 13 10 24 -3 9 3 24 15 35 15 14 20 15 20 4 0
-9 5 -7 12 5 8 15 8 21 0 24 -22 7 -12 20 11 14 18 -4 20 -3 11 9 -21 26 -22
55 -3 67 14 9 16 17 9 41 -7 25 -5 30 12 34 17 5 17 8 6 26 -7 11 -8 24 -4 28
5 4 11 2 13 -5 3 -6 9 -10 14 -7 5 4 27 7 48 8 31 2 37 0 29 -10 -8 -9 -3 -15
17 -23 14 -5 30 -10 33 -10 4 0 14 -8 21 -18 12 -18 16 -18 67 -3 30 9 54 19
54 24 0 4 15 21 33 38 17 17 27 28 20 25 -20 -11 -25 13 -9 44 8 17 10 30 5
30 -5 0 -9 -4 -9 -8 0 -4 -10 -8 -22 -9 -23 -2 -23 -2 2 17 14 11 33 17 42 14
13 -4 16 -1 12 10 -3 9 -17 16 -31 16 -20 0 -23 3 -14 13 18 22 41 97 30 97
-6 0 -8 8 -4 18 6 21 -18 86 -28 75 -4 -3 -7 -1 -7 6 0 10 -7 9 -26 -4 -32
-20 -44 -12 -20 14 13 14 15 24 8 36 -8 16 -9 16 -15 0 -9 -22 -27 -9 -27 19
0 13 -7 29 -15 36 -8 7 -15 22 -15 34 -1 19 -2 19 -11 4 -15 -27 -39 -22 -39
7 0 14 -7 28 -15 31 -8 4 -15 13 -15 22 0 8 -3 12 -7 9 -3 -4 -12 -2 -20 4 -9
9 -13 8 -13 0 0 -6 -5 -11 -11 -11 -6 0 -9 7 -6 15 4 8 2 17 -3 20 -6 4 -10 1
-10 -6 0 -8 -7 -6 -19 5 -18 17 -20 16 -26 -4z m12 -42 c-3 -8 -6 -5 -6 6 -1
11 2 17 5 13 3 -3 4 -12 1 -19z m-267 -53 c10 -12 9 -15 -8 -15 -29 0 -53 11
-46 21 8 14 40 11 54 -6z m224 -16 c-8 -13 -24 -1 -24 18 0 13 3 13 15 3 8 -7
12 -16 9 -21z m-294 11 c0 -5 -2 -10 -4 -10 -3 0 -8 5 -11 10 -3 6 -1 10 4 10
6 0 11 -4 11 -10z m110 -10 c0 -5 -2 -10 -4 -10 -3 0 -8 5 -11 10 -3 6 -1 10
4 10 6 0 11 -4 11 -10z m340 -47 c-11 -17 -11 -17 -6 0 3 10 6 24 7 30 0 9 2
9 5 0 3 -7 0 -20 -6 -30z m-522 9 c6 -18 -15 -14 -22 4 -4 10 -1 14 6 12 6 -2
14 -10 16 -16z m-688 -12 c-24 -15 -37 -11 -16 5 11 8 22 12 25 9 3 -3 -1 -9
-9 -14z m990 5 c11 -13 10 -14 -4 -9 -9 3 -16 10 -16 15 0 13 6 11 20 -6z
m-350 -4 c0 -12 -26 -21 -58 -21 -20 0 -23 3 -12 9 8 6 17 8 21 5 4 -2 10 0
14 6 8 12 35 13 35 1z m-553 -27 c-1 -2 -13 -1 -26 3 -16 4 -19 8 -10 14 12 7
45 -9 36 -17z m430 20 c-3 -3 -12 -4 -19 -1 -8 3 -5 6 6 6 11 1 17 -2 13 -5z
m-160 -980 c-3 -3 -12 -4 -19 -1 -8 3 -5 6 6 6 11 1 17 -2 13 -5z m43 -4 c0
-5 -2 -10 -4 -10 -3 0 -8 5 -11 10 -3 6 -1 10 4 10 6 0 11 -4 11 -10z m-191
-52 c0 -27 -2 -29 -8 -13 -5 11 -6 26 -4 33 8 21 13 13 12 -20z m201 12 c0 -5
-4 -10 -10 -10 -5 0 -10 5 -10 10 0 6 5 10 10 10 6 0 10 -4 10 -10z m-130 -60
c0 -16 -4 -30 -9 -30 -12 0 -24 37 -16 50 12 20 25 10 25 -20z m337 -22 c-3
-8 -6 -5 -6 6 -1 11 2 17 5 13 3 -3 4 -12 1 -19z m-372 3 c3 -5 1 -12 -5 -16
-5 -3 -10 1 -10 9 0 18 6 21 15 7z"/>
<path d="M8960 8300 c0 -6 7 -10 15 -10 8 0 15 2 15 4 0 2 -7 6 -15 10 -8 3
-15 1 -15 -4z"/>
<path d="M9021 8273 c7 -10 15 -20 16 -22 2 -2 3 5 3 17 0 14 -6 22 -16 22
-14 0 -15 -3 -3 -17z"/>
<path d="M8195 8220 c-3 -5 -1 -10 4 -10 6 0 11 5 11 10 0 6 -2 10 -4 10 -3 0
-8 -4 -11 -10z"/>
<path d="M8400 8208 c0 -10 18 -9 45 2 16 6 14 8 -12 7 -18 0 -33 -4 -33 -9z"/>
<path d="M8000 8150 c0 -5 5 -10 10 -10 6 0 10 5 10 10 0 6 -4 10 -10 10 -5 0
-10 -4 -10 -10z"/>
<path d="M7830 8091 c0 -14 49 -22 68 -12 9 6 15 11 12 11 -39 7 -80 7 -80 1z"/>
<path d="M7860 8020 c0 -13 20 -13 40 0 12 8 9 10 -12 10 -16 0 -28 -4 -28
-10z"/>
<path d="M9845 7976 c5 -23 4 -27 -4 -16 -8 12 -11 8 -11 -16 0 -17 -8 -38
-18 -47 -24 -22 -35 -22 -24 1 6 10 5 29 -2 50 -13 37 -29 33 -20 -4 4 -15 2
-24 -5 -24 -6 0 -12 19 -13 43 -1 30 -3 23 -8 -28 -7 -78 -3 -96 16 -71 11 16
13 16 18 -1 3 -10 5 -57 5 -105 -1 -72 -5 -92 -21 -110 -17 -20 -18 -23 -4
-26 9 -2 16 -4 16 -5 0 -1 -7 -26 -14 -55 -9 -31 -11 -63 -7 -80 5 -17 3 -37
-5 -53 -25 -50 -32 -104 -18 -137 11 -28 101 -123 236 -251 l57 -53 27 53 c25
50 28 65 32 198 4 114 9 154 24 188 18 41 38 50 38 17 0 -33 31 -10 55 44 33
69 38 150 12 201 -9 19 -17 43 -17 53 0 10 -9 28 -20 40 -11 12 -20 30 -20 40
0 9 -11 25 -24 34 -14 8 -23 21 -20 28 10 27 -24 24 -36 -2 -7 -15 -15 -22
-17 -15 -2 7 0 21 6 31 9 16 7 19 -7 18 -9 0 -21 -7 -25 -13 -4 -7 -14 -13
-22 -13 -7 0 -16 -8 -18 -17 -3 -11 -5 -7 -6 10 -1 17 4 27 13 27 18 0 30 30
17 43 -11 11 -34 -1 -26 -14 4 -5 -1 -9 -9 -9 -15 0 -23 -45 -18 -103 1 -10
-3 -15 -8 -12 -13 8 -13 45 1 100 8 31 8 49 0 62 -10 17 -10 17 -11 1 0 -10
-9 -23 -20 -30 -11 -7 -20 -18 -20 -25 0 -7 -5 -13 -11 -13 -7 0 -9 10 -7 25
3 14 1 28 -3 31 -5 3 -9 13 -9 23 0 10 -7 18 -15 18 -12 0 -14 -7 -10 -31z
m75 -156 c0 -5 -5 -10 -11 -10 -5 0 -7 5 -4 10 3 6 8 10 11 10 2 0 4 -4 4 -10z
m16 -66 c-4 -9 -9 -15 -11 -12 -3 3 -3 13 1 22 4 9 9 15 11 12 3 -3 3 -13 -1
-22z"/>
<path d="M7865 7990 c-3 -5 -1 -10 4 -10 6 0 11 5 11 10 0 6 -2 10 -4 10 -3 0
-8 -4 -11 -10z"/>
<path d="M7925 7990 c28 -12 37 -12 30 0 -3 6 -16 10 -28 9 -21 0 -21 -1 -2
-9z"/>
<path d="M5811 7614 c0 -11 3 -14 6 -6 3 7 2 16 -1 19 -3 4 -6 -2 -5 -13z"/>
<path d="M5751 7474 c0 -11 3 -14 6 -6 3 7 2 16 -1 19 -3 4 -6 -2 -5 -13z"/>
<path d="M8022 7210 c0 -14 2 -19 5 -12 2 6 2 18 0 25 -3 6 -5 1 -5 -13z"/>
<path d="M8127 7174 c-13 -14 -7 -54 8 -54 16 0 18 14 6 43 -3 10 -10 15 -14
11z"/>
<path d="M8205 7158 c-10 -30 -11 -39 -4 -35 3 1 13 -4 22 -12 15 -12 17 -11
17 5 0 29 -11 64 -20 64 -4 0 -11 -10 -15 -22z"/>
<path d="M4225 7151 c-33 -9 -83 -29 -112 -44 -129 -67 -160 -144 -155 -387 2
-74 4 -86 20 -87 9 -1 24 -3 32 -5 9 -2 16 6 18 22 2 14 7 27 11 30 19 15 91
165 91 192 1 18 92 118 108 118 6 0 12 4 12 9 0 37 208 58 260 26 6 -3 10 -2
10 3 0 16 -47 60 -90 84 -23 12 -56 31 -73 40 -38 21 -53 21 -132 -1z m-205
-471 c0 -5 -2 -10 -4 -10 -3 0 -8 5 -11 10 -3 6 -1 10 4 10 6 0 11 -4 11 -10z"/>
<path d="M8171 7134 c0 -11 3 -14 6 -6 3 7 2 16 -1 19 -3 4 -6 -2 -5 -13z"/>
<path d="M8251 7124 c0 -11 3 -14 6 -6 3 7 2 16 -1 19 -3 4 -6 -2 -5 -13z"/>
<path d="M8015 6999 c-4 -6 -4 -13 -1 -16 8 -8 36 5 36 17 0 13 -27 13 -35 -1z"/>
<path d="M4562 6955 c-1 -21 4 -35 13 -39 8 -3 15 -13 14 -23 0 -16 -1 -16 -9
2 -11 25 -12 22 -16 -40 -2 -29 0 -44 5 -37 7 11 9 10 14 -2 5 -12 14 -15 31
-10 13 3 34 1 45 -6 42 -22 12 55 -52 134 l-44 54 -1 -33z"/>
<path d="M4941 6874 c0 -11 3 -14 6 -6 3 7 2 16 -1 19 -3 4 -6 -2 -5 -13z"/>
<path d="M5481 6874 c0 -11 3 -14 6 -6 3 7 2 16 -1 19 -3 4 -6 -2 -5 -13z"/>
<path d="M5474 6756 c12 -18 12 -26 3 -29 -9 -4 -9 -6 1 -6 9 -1 11 -12 8 -38
-3 -21 -3 -30 0 -20 3 9 10 17 15 17 5 0 8 14 7 30 -1 17 -5 30 -9 30 -4 0
-11 9 -14 20 -3 11 -11 20 -17 20 -6 0 -3 -11 6 -24z"/>
<path d="M5526 6667 c3 -10 9 -15 12 -12 3 3 0 11 -7 18 -10 9 -11 8 -5 -6z"/>
<path d="M4740 6561 c-14 -10 -50 -32 -80 -48 -42 -22 -60 -40 -78 -74 -13
-25 -18 -45 -12 -47 5 -2 10 -10 10 -17 0 -13 59 -39 68 -30 3 2 13 0 24 -6
14 -8 24 -7 35 2 8 7 24 15 36 16 12 2 29 11 39 20 14 13 18 13 18 2 0 -11 2
-11 10 1 5 8 10 26 10 39 0 31 -39 161 -48 161 -4 0 -18 -9 -32 -19z"/>
<path d="M3165 6360 c-3 -5 -1 -10 4 -10 6 0 11 5 11 10 0 6 -2 10 -4 10 -3 0
-8 -4 -11 -10z"/>
<path d="M5610 6271 c0 -6 5 -13 10 -16 6 -3 10 1 10 9 0 9 -4 16 -10 16 -5 0
-10 -4 -10 -9z"/>
<path d="M9645 6076 c-75 -19 -138 -50 -182 -90 -22 -20 -46 -36 -52 -36 -6 0
-11 -4 -11 -9 0 -5 -9 -13 -21 -16 -28 -9 -44 -47 -31 -72 10 -17 17 -18 74
-11 35 5 101 17 148 28 123 27 152 31 280 32 123 1 178 17 200 58 46 85 -220
162 -405 116z"/>
<path d="M10335 6059 c6 -17 4 -20 -13 -15 -14 5 -28 -3 -51 -26 -17 -17 -31
-38 -31 -45 0 -7 -4 -13 -10 -13 -5 0 -10 -8 -10 -18 0 -17 -32 -52 -49 -52
-4 0 -13 -11 -19 -24 -6 -13 -21 -31 -34 -41 -42 -29 -138 -84 -161 -90 -12
-4 -36 -22 -54 -40 l-31 -34 20 -40 c18 -38 48 -72 48 -56 0 4 7 2 15 -5 9 -8
13 -21 9 -36 -4 -15 0 -29 10 -39 9 -9 16 -22 16 -30 0 -7 11 -15 25 -17 24
-5 25 -3 26 51 1 97 4 112 26 129 14 12 23 34 27 70 12 93 58 142 133 142 30
0 92 42 157 106 37 37 45 50 32 52 -9 2 -14 7 -11 12 3 5 -3 11 -14 15 -11 3
-22 19 -26 35 -4 17 -13 30 -21 30 -11 0 -13 -6 -9 -21z"/>
<path d="M5690 5865 c0 -5 5 -17 10 -25 5 -8 10 -10 10 -5 0 6 -5 17 -10 25
-5 8 -10 11 -10 5z"/>
<path d="M5530 5731 c0 -5 5 -13 10 -16 6 -3 10 -2 10 4 0 5 -4 13 -10 16 -5
3 -10 2 -10 -4z"/>
<path d="M5580 5688 c0 -9 5 -20 10 -23 13 -8 13 5 0 25 -8 13 -10 13 -10 -2z"/>
<path d="M9460 5673 c0 -5 3 -13 7 -17 10 -10 11 -46 1 -46 -4 0 -8 6 -8 14 0
8 -7 17 -16 20 -14 5 -15 4 -4 -9 9 -11 9 -15 1 -15 -7 0 0 -12 14 -27 27 -30
30 -39 15 -48 -6 -4 -8 -10 -5 -15 3 -4 -4 -19 -15 -31 l-19 -24 4 33 c4 35 2
37 -56 46 -26 5 -39 13 -44 29 -4 13 -8 17 -11 10 -4 -10 -12 -9 -35 2 l-29
15 11 -27 c6 -15 16 -31 22 -35 16 -10 16 -108 1 -108 -6 0 -17 7 -24 15 -7 8
-19 15 -27 15 -13 0 -13 -3 -2 -16 7 -9 14 -23 15 -31 4 -24 13 -28 33 -16 16
10 25 7 55 -23 19 -18 37 -34 39 -34 3 0 7 13 10 28 5 25 9 28 36 24 37 -5 42
13 6 22 -14 4 -25 10 -25 15 0 4 11 14 25 21 14 7 25 17 25 22 0 5 5 6 10 3 9
-6 14 14 11 43 -1 6 5 12 14 12 8 0 15 -4 15 -10 0 -5 5 -10 11 -10 11 0 59
-46 59 -56 0 -2 -8 -4 -17 -4 -11 0 -14 -3 -7 -10 16 -16 54 0 55 24 1 19 2
19 6 2 3 -10 13 -28 23 -39 13 -14 17 -28 13 -53 -5 -33 -4 -34 26 -34 17 0
34 -1 38 -2 4 -2 9 5 11 15 3 13 -2 16 -19 15 -15 -2 -24 3 -27 13 -2 12 5 16
27 17 17 0 33 -4 36 -9 4 -5 11 -9 16 -9 5 0 1 10 -10 22 -12 12 -24 31 -27
42 -4 12 -14 26 -23 33 -12 10 -13 14 -3 21 9 6 7 13 -10 29 -13 11 -31 23
-40 26 -10 4 -18 11 -18 17 0 14 33 13 48 -2 9 -9 12 -7 13 13 1 16 3 19 6 7
2 -10 9 -18 15 -18 6 0 8 10 4 23 -3 12 -6 28 -6 35 0 9 -5 10 -19 2 -21 -10
-51 -4 -51 11 0 5 -5 9 -10 9 -6 0 -3 -11 6 -25 9 -14 15 -25 13 -25 -2 -1
-21 -3 -41 -6 -24 -4 -38 -2 -38 5 0 6 -7 11 -16 11 -9 0 -25 10 -35 22 -11
11 -19 17 -19 13 0 -4 -9 0 -20 10 -11 10 -20 14 -20 8z m175 -123 c3 -5 2
-10 -4 -10 -5 0 -13 5 -16 10 -3 6 -2 10 4 10 5 0 13 -4 16 -10z m-292 -46 c9
-9 -4 -35 -14 -28 -5 3 -9 12 -9 20 0 14 12 19 23 8z m71 -15 c-3 -5 -10 -7
-15 -3 -5 3 -7 10 -3 15 3 5 10 7 15 3 5 -3 7 -10 3 -15z m-49 -60 c-4 -5 -13
-9 -22 -9 -13 0 -13 3 -3 15 13 15 35 11 25 -6z"/>
<path d="M9760 5621 c0 -6 5 -13 10 -16 6 -4 7 -11 4 -17 -4 -7 -2 -8 4 -4 7
4 12 1 12 -9 0 -19 -43 -37 -67 -28 -11 4 -14 3 -9 -5 4 -7 17 -12 29 -12 22
0 63 -55 48 -64 -10 -6 -2 -64 10 -72 5 -3 9 -12 9 -21 0 -13 -3 -13 -15 -3
-10 9 -15 9 -15 1 0 -6 5 -11 10 -11 18 0 25 -2 45 -13 25 -15 55 -17 55 -5 0
6 -10 18 -22 27 -20 16 -20 21 -9 49 18 42 11 76 -16 80 -33 5 -49 29 -35 52
9 14 8 25 -4 49 -14 29 -44 43 -44 22z"/>
<path d="M9226 5574 c-11 -28 -6 -39 9 -20 8 11 15 23 15 28 0 14 -18 9 -24
-8z"/>
<path d="M5445 5529 c-4 -6 -5 -12 -2 -15 2 -3 7 2 10 11 7 17 1 20 -8 4z"/>
<path d="M8941 5505 c1 -11 5 -31 9 -45 7 -22 8 -22 10 -5 3 29 0 49 -11 60
-5 5 -9 2 -8 -10z"/>
<path d="M9142 5490 c9 -6 19 -24 23 -40 9 -41 25 -38 25 5 0 26 -3 33 -15 29
-8 -4 -15 -1 -15 5 0 6 -8 11 -17 11 -17 -1 -17 -1 -1 -10z"/>
<path d="M8790 5487 c0 -5 7 -31 16 -58 16 -49 16 -51 -5 -72 -18 -19 -21 -19
-21 -4 0 16 -8 20 -45 20 -32 0 -35 -4 -29 -28 5 -19 2 -25 -10 -25 -9 0 -22
11 -28 25 -18 40 -23 30 -20 -37 3 -42 0 -60 -6 -53 -6 6 -12 19 -15 30 -3 11
-5 0 -6 -24 -1 -39 1 -42 16 -30 15 13 16 11 10 -10 -3 -14 -1 -31 4 -38 6 -7
9 -18 6 -25 -4 -8 -6 -7 -6 5 -1 20 -21 24 -21 3 0 -19 -27 -28 -34 -10 -10
27 -31 14 -53 -34 l-21 -47 -2 40 c0 22 -1 55 -1 73 0 17 -4 32 -9 32 -14 0
-17 -24 -7 -60 6 -22 6 -35 0 -37 -6 -2 -8 -15 -5 -28 2 -14 1 -33 -3 -42 -5
-10 -7 -24 -6 -32 1 -7 0 -20 -4 -29 -5 -14 -7 -15 -16 -2 -8 11 -9 8 -5 -13
5 -21 1 -33 -17 -50 -39 -36 -64 -55 -85 -61 -18 -6 -19 -3 -15 37 3 27 1 47
-6 51 -7 5 -11 -2 -12 -16 -1 -13 -3 -33 -4 -46 -1 -12 2 -25 7 -28 4 -3 1
-19 -9 -35 -13 -22 -15 -31 -5 -41 15 -15 16 -74 2 -83 -6 -4 -5 -12 5 -21 8
-8 19 -32 25 -53 17 -63 50 -77 50 -21 0 19 5 26 20 27 11 1 20 -2 20 -8 0 -5
5 -9 10 -9 6 0 10 8 10 19 0 11 18 29 44 46 25 16 50 41 56 56 11 25 13 26 37
14 22 -12 29 -11 49 3 13 9 24 23 24 30 0 13 49 27 90 25 167 -9 284 -10 320
-3 25 5 52 4 61 -1 13 -6 18 -4 22 12 5 18 8 19 27 7 18 -11 23 -10 36 6 12
18 27 20 137 20 106 0 128 -3 166 -22 32 -16 47 -19 52 -11 11 19 42 1 36 -20
-3 -14 -1 -18 9 -14 8 3 14 0 14 -6 0 -6 5 -11 10 -11 6 0 10 6 10 14 0 7 7
19 15 26 13 10 19 10 33 -2 16 -14 53 -30 77 -33 30 -3 65 -19 65 -29 0 -6 5
-4 10 4 9 13 15 10 41 -18 17 -19 33 -31 36 -28 10 10 33 -15 33 -36 0 -10 -4
-17 -9 -14 -15 9 -18 -15 -9 -59 23 -109 23 -103 -8 -111 -16 -4 -34 -11 -40
-15 -13 -11 -116 -13 -169 -4 -68 11 -156 7 -174 -8 -9 -8 -22 -12 -29 -10 -7
3 -10 -1 -7 -9 3 -7 -5 -17 -17 -23 -12 -6 -32 -25 -44 -43 -14 -20 -24 -28
-27 -20 -7 17 -29 -11 -23 -29 3 -6 -2 -19 -10 -30 -13 -17 -15 -17 -28 0 -16
21 -27 22 -20 2 4 -8 -1 -26 -9 -39 -21 -32 -11 -66 19 -66 15 0 24 -6 24 -15
0 -8 -4 -15 -10 -15 -5 0 -10 -4 -10 -10 0 -5 7 -10 16 -10 9 0 27 -9 41 -20
14 -11 30 -17 35 -14 5 3 19 -3 31 -14 12 -11 39 -24 60 -27 20 -4 40 -11 43
-16 3 -5 14 -9 25 -9 15 0 19 -7 19 -31 0 -26 3 -29 20 -24 27 9 25 -5 -6 -38
-29 -31 -24 -47 13 -47 15 0 23 3 20 7 -6 5 45 43 57 43 4 0 15 -31 21 -59 2
-8 9 -18 17 -22 7 -4 9 -11 5 -16 -4 -4 -18 5 -31 20 -13 15 -26 27 -30 27
-13 0 8 -56 30 -81 27 -28 32 -54 9 -45 -22 8 -18 -10 4 -26 12 -9 17 -19 12
-27 -6 -9 -10 -7 -14 9 -3 12 -10 19 -16 15 -6 -3 -11 -1 -11 4 0 6 -5 11 -11
11 -7 0 -9 -10 -7 -25 6 -30 -3 -32 -28 -4 l-18 20 -8 -21 c-6 -15 -2 -27 12
-42 11 -12 20 -29 20 -37 0 -11 -9 -6 -25 14 -28 34 -32 24 -10 -28 19 -45 19
-44 -5 -50 -16 -4 -19 -11 -13 -37 5 -28 3 -32 -13 -28 -15 3 -21 -5 -29 -37
l-11 -40 -23 48 c-13 26 -26 46 -29 43 -3 -3 -6 -27 -7 -53 -2 -62 -17 -70
-30 -16 -12 48 -25 66 -25 35 0 -12 -4 -22 -10 -22 -5 0 -10 -9 -10 -20 0 -11
-4 -20 -9 -20 -4 0 -7 -12 -5 -27 2 -16 1 -21 -2 -13 -14 32 -45 40 -37 10 3
-11 0 -20 -6 -20 -6 0 -11 -7 -11 -15 0 -8 -9 -19 -20 -25 -15 -8 -21 -6 -30
9 -5 11 -10 27 -10 36 0 9 -4 13 -10 10 -5 -3 -15 5 -21 19 -9 20 -9 29 1 41
8 10 9 15 1 15 -6 0 -11 -5 -11 -11 0 -5 -4 -7 -10 -4 -5 3 -10 16 -10 29 0
13 -9 31 -20 41 -11 10 -22 26 -26 37 -4 15 -9 17 -19 8 -8 -7 -19 -9 -26 -5
-8 6 -8 2 0 -14 14 -25 4 -27 -21 -4 -17 15 -18 15 -18 -1 0 -9 11 -22 25 -28
22 -10 25 -17 25 -65 0 -34 -4 -52 -10 -48 -14 9 -12 -19 2 -33 13 -13 48 -16
48 -4 0 4 -5 23 -10 42 -6 19 -8 48 -4 63 5 23 8 26 21 16 8 -7 12 -21 10 -31
-3 -10 -2 -32 3 -48 16 -57 -10 -108 -52 -101 -5 0 -8 -18 -8 -41 0 -23 -3
-38 -7 -35 -8 9 -24 105 -28 172 -4 64 -4 63 -15 45 -7 -11 -11 -4 -16 28 -6
39 -24 60 -24 28 0 -8 -9 -21 -21 -30 -16 -11 -19 -19 -12 -31 9 -16 11 -16
27 1 17 17 18 15 15 -37 -4 -47 -2 -54 14 -51 12 2 17 -4 17 -20 0 -19 -2 -20
-10 -8 -8 13 -11 13 -19 1 -5 -7 -13 -11 -18 -8 -5 3 -15 2 -23 -3 -11 -7 -11
-11 -1 -23 8 -11 9 -25 3 -49 l-9 -33 -21 44 c-12 25 -22 56 -22 70 0 26 -20
68 -20 44 0 -7 -7 -13 -15 -13 -12 0 -14 7 -9 28 14 56 24 72 44 72 15 0 20 7
20 28 0 19 -3 23 -9 13 -11 -17 -41 -7 -41 14 0 8 -4 15 -10 15 -13 0 -13 -3
2 -35 9 -20 8 -31 -2 -50 -7 -13 -16 -22 -20 -20 -4 3 -10 -4 -13 -15 -6 -23
-27 -27 -27 -6 0 7 -7 19 -16 27 -13 11 -14 9 -9 -13 4 -14 2 -29 -3 -32 -11
-7 -25 21 -16 35 3 5 1 9 -4 9 -4 0 -16 -15 -25 -32 -8 -18 -16 -26 -16 -18
-1 8 -11 21 -22 29 -21 12 -22 12 -16 -19 4 -19 3 -29 -3 -25 -5 3 -12 -7 -16
-22 -10 -46 -13 -53 -25 -53 -7 0 -9 8 -4 23 12 38 11 60 -4 65 -9 3 -11 -1
-7 -15 4 -12 1 -25 -7 -32 -12 -9 -17 -5 -27 19 -13 31 -24 37 -35 20 -6 -10
-35 -2 -35 10 0 5 5 21 10 35 8 22 13 25 24 15 12 -9 14 -4 13 32 -1 34 5 54
32 93 31 46 32 48 5 21 -15 -16 -30 -24 -32 -18 -2 6 -19 -6 -38 -26 -21 -22
-34 -30 -34 -21 0 8 5 20 10 25 7 7 7 19 2 35 -9 22 -10 20 -17 -20 -4 -25
-17 -54 -31 -68 -12 -12 -28 -31 -33 -40 -6 -10 -11 -12 -11 -5 0 20 -20 14
-20 -7 0 -14 -6 -19 -20 -18 -24 2 -26 15 -5 23 19 8 19 24 0 24 -21 0 -35
-32 -35 -80 0 -24 -4 -39 -10 -35 -5 3 -7 12 -3 20 3 10 -1 15 -11 15 -15 0
-15 3 -1 30 17 34 19 44 5 35 -9 -6 -7 17 6 84 5 21 3 22 -11 8 -8 -9 -15 -18
-15 -21 0 -3 -13 -19 -30 -36 -16 -17 -30 -35 -30 -40 0 -6 -6 -10 -14 -10 -8
0 -17 -8 -19 -17 -4 -14 -5 -13 -6 4 0 12 3 24 8 27 4 3 6 17 3 31 -3 20 -1
24 12 19 19 -7 39 34 25 52 -10 12 0 82 12 90 5 3 9 -11 9 -30 0 -19 5 -38 11
-42 14 -8 29 14 22 33 -3 7 2 13 11 13 11 0 16 -9 17 -27 0 -26 1 -26 10 -8 7
14 7 30 -1 49 -8 23 -13 26 -25 16 -26 -21 -31 17 -6 44 24 25 28 41 8 33 -9
-3 -13 5 -13 29 0 32 0 33 16 12 8 -11 23 -29 32 -39 20 -21 13 -53 -9 -45 -9
4 -13 1 -11 -6 3 -7 12 -14 21 -16 11 -2 18 7 23 33 6 32 3 40 -20 61 -34 32
-34 62 0 75 25 9 26 11 10 28 -13 14 -14 20 -4 28 25 19 48 23 48 8 0 -8 7
-15 15 -15 8 0 15 5 15 10 0 6 14 10 31 10 16 0 28 4 24 9 -3 5 -1 12 5 16 6
4 8 11 4 16 -3 6 -12 5 -21 -3 -8 -6 -21 -13 -29 -14 -27 -4 -24 15 7 45 25
26 34 29 46 20 12 -11 13 -8 8 14 -5 19 -3 27 6 28 8 0 4 4 -8 9 -18 7 -23 17
-23 45 0 39 -9 43 -44 20 -13 -9 -30 -14 -37 -13 -8 2 -13 -5 -13 -14 1 -10
-2 -18 -7 -18 -5 0 -9 5 -9 10 0 9 -53 6 -70 -5 -16 -10 -34 17 -33 51 1 25
-2 33 -8 23 -12 -20 -11 -57 3 -82 21 -38 18 -74 -6 -82 -11 -4 -24 -7 -28 -6
-5 1 -8 -6 -8 -15 0 -11 6 -14 20 -9 20 6 28 -9 10 -20 -5 -3 -10 -15 -10 -26
0 -10 -4 -19 -10 -19 -5 0 -10 11 -10 25 0 33 -14 32 -29 -2 -10 -22 -14 -24
-22 -12 -6 10 -9 -1 -8 -36 1 -96 -2 -118 -26 -154 -13 -20 -27 -55 -31 -78
-5 -32 -11 -43 -25 -43 -26 0 -31 31 -14 79 15 44 8 81 -17 81 -7 0 -7 4 0 13
19 23 2 95 -19 82 -5 -4 -9 -17 -9 -31 0 -13 -4 -24 -9 -24 -6 0 -5 14 0 36
15 54 6 75 -11 24 -7 -25 -20 -54 -27 -65 -13 -19 -14 -18 -7 8 4 16 2 27 -4
27 -14 0 -25 -36 -17 -59 4 -13 -2 -25 -20 -39 -14 -11 -25 -26 -25 -34 0 -30
-14 -27 -27 4 -8 19 -11 45 -7 62 3 17 4 29 1 26 -16 -15 -57 -106 -57 -126 0
-13 -4 -26 -10 -29 -6 -4 -10 5 -10 21 0 22 -2 24 -15 14 -12 -10 -16 -8 -25
15 -14 38 -13 50 5 35 8 -7 15 -9 15 -4 0 5 4 2 10 -6 5 -8 12 -12 15 -8 4 3
-3 17 -14 30 -12 13 -28 31 -36 41 -8 9 -15 33 -15 53 l0 35 -25 -27 c-14 -15
-27 -37 -30 -48 -7 -36 -11 -106 -5 -106 7 0 4 -65 -4 -78 -12 -20 -28 -14
-18 6 10 19 5 42 -9 42 -5 0 -9 -7 -9 -15 0 -8 -5 -15 -11 -15 -11 0 -9 35 7
89 6 21 4 23 -11 17 -22 -8 -35 8 -35 44 0 14 -4 20 -8 14 -4 -6 -16 -16 -27
-22 -17 -9 -22 -7 -33 11 -11 19 -12 17 -6 -23 5 -43 4 -46 -20 -48 -18 -1
-26 3 -26 15 0 9 -3 13 -6 10 -4 -3 -15 5 -26 18 -15 19 -18 33 -13 56 5 22 4
29 -4 25 -7 -5 -9 8 -6 41 l4 48 -10 -45 c-5 -25 -8 -66 -5 -92 3 -27 1 -48
-4 -48 -6 0 -10 10 -11 23 -1 13 -4 8 -10 -16 -5 -23 -5 -45 0 -55 5 -10 7
-29 4 -44 -5 -25 -6 -25 -24 -10 -12 11 -19 29 -19 54 0 26 -4 38 -14 38 -8 0
-16 -6 -19 -12 -3 -10 -7 -10 -19 -1 -13 11 -15 8 -16 -24 -1 -19 -4 -39 -8
-42 -8 -7 2 143 12 179 4 16 3 21 -3 15 -5 -5 -15 -29 -22 -52 -9 -32 -15 -41
-27 -36 -11 4 -14 13 -9 27 3 11 8 30 10 41 3 11 16 55 30 98 31 92 50 93 42
3 -5 -57 -4 -59 10 -39 l15 23 19 -23 c10 -12 18 -17 19 -10 0 6 -4 15 -10 18
-14 9 -12 39 4 77 8 18 20 53 27 78 7 25 16 50 20 55 4 6 10 25 14 43 5 23 12
32 27 32 15 0 18 3 10 13 -6 8 -7 31 -1 67 5 30 5 57 0 60 -11 7 -21 138 -10
142 5 2 12 19 15 38 7 32 6 34 -9 21 -15 -12 -19 -10 -32 20 -17 40 -19 30 -4
-26 11 -42 18 -320 8 -303 -4 6 -8 5 -11 -3 -4 -11 -10 -10 -31 4 -23 15 -27
24 -27 67 0 27 -5 52 -12 56 -8 5 -9 -8 -4 -52 4 -32 11 -60 16 -62 19 -7 10
-49 -21 -95 -17 -26 -28 -54 -26 -64 4 -14 5 -13 6 4 2 42 30 29 36 -17 0 -3
3 -9 6 -15 8 -13 -18 -75 -31 -75 -14 0 -13 6 7 43 12 25 13 29 2 20 -12 -10
-17 -8 -26 5 -17 28 -26 82 -15 95 13 17 22 57 12 57 -5 0 -11 -10 -13 -22 -3
-14 -5 -8 -6 15 -1 26 -5 37 -13 34 -16 -5 -15 -106 1 -136 9 -16 7 -28 -8
-56 -10 -20 -17 -45 -14 -55 3 -11 0 -27 -8 -36 -11 -14 -14 -13 -25 8 -16 28
-18 62 -3 52 7 -4 9 2 7 17 -2 16 2 23 10 21 8 -1 12 3 10 10 -3 7 -15 12 -26
10 -19 -3 -21 0 -16 30 4 25 3 29 -5 18 -6 -8 -11 -25 -11 -36 0 -12 -6 -36
-13 -53 -13 -30 -13 -30 -30 -11 -9 11 -17 28 -17 38 -1 9 -7 1 -13 -18 -7
-19 -18 -44 -24 -55 -11 -19 -12 -19 -22 8 -14 36 -14 44 2 50 10 4 10 7 0 18
-18 19 -17 88 2 95 8 4 15 18 14 33 l0 26 -10 -24 c-13 -32 -17 -24 -11 23 3
26 7 34 13 25 7 -11 9 -10 9 4 0 27 -24 15 -28 -14 -6 -38 -20 -45 -31 -16
-18 46 -23 30 -16 -47 5 -54 4 -76 -5 -81 -22 -13 -42 25 -37 69 l5 39 -28
-32 c-16 -17 -33 -31 -38 -31 -6 0 -13 -11 -16 -25 -8 -30 -26 -33 -26 -5 0
11 -4 20 -10 20 -5 0 -9 -8 -9 -17 2 -27 16 -80 18 -65 2 23 21 2 21 -24 0
-13 5 -24 10 -24 6 0 10 -15 10 -34 0 -19 -4 -38 -10 -41 -5 -3 -10 2 -10 12
-1 17 -1 17 -11 1 -14 -25 -31 -22 -27 5 2 12 9 21 15 20 6 -1 14 4 17 12 3 9
0 12 -10 8 -10 -4 -14 3 -15 23 -1 30 -3 27 -13 -18 -9 -40 -23 -34 -31 12 -5
29 -1 55 15 97 13 36 19 66 14 82 -3 15 -9 20 -11 13 -3 -6 -8 -10 -11 -8 -4
2 -7 -18 -7 -46 0 -35 -5 -53 -17 -62 -9 -7 -20 -24 -23 -39 -4 -15 -13 -27
-21 -27 -8 0 -14 -7 -14 -16 0 -10 -6 -14 -14 -11 -9 4 -13 1 -10 -7 6 -15
-22 -126 -36 -140 -7 -7 -10 -4 -10 7 0 9 -9 21 -20 27 -11 6 -20 19 -20 29 0
11 -7 21 -15 25 -10 3 -15 19 -15 43 l0 38 20 -32 c11 -18 21 -33 24 -33 9 0
-2 58 -17 94 -21 47 -22 71 -2 36 11 -20 14 -21 15 -7 0 14 5 17 21 12 19 -6
20 -5 8 17 -7 12 -23 32 -36 43 -16 14 -23 32 -23 55 0 26 -3 31 -10 20 -7
-12 -10 -11 -16 5 -4 10 -16 27 -27 38 -10 10 -16 25 -13 32 3 8 1 17 -3 20
-15 8 -21 -23 -11 -51 6 -14 10 -33 9 -42 0 -12 -3 -9 -10 7 -5 13 -12 21 -15
18 -3 -3 -1 -14 5 -25 16 -30 14 -63 -4 -56 -22 9 -8 -67 16 -85 19 -14 28
-57 9 -46 -5 3 -10 0 -11 -7 0 -7 -16 19 -35 57 l-34 70 5 -72 4 -72 -34 38
c-19 21 -35 46 -35 55 0 10 -5 14 -11 10 -14 -8 -4 -51 20 -84 10 -14 21 -38
25 -55 4 -16 18 -47 32 -67 13 -21 24 -41 24 -45 0 -15 -69 61 -81 88 -6 16
-15 29 -20 29 -13 0 -11 -6 16 -46 14 -20 25 -42 25 -48 0 -13 -49 45 -50 59
0 6 -4 4 -9 -3 -6 -10 -15 -7 -39 13 -18 15 -32 23 -32 18 -1 -4 -7 3 -15 17
-8 14 -14 19 -15 10 0 -17 -60 45 -60 63 0 7 -4 6 -10 -3 -10 -16 8 -51 44
-85 12 -11 16 -16 9 -11 -8 5 -13 4 -13 -2 0 -6 5 -14 10 -17 15 -9 12 -27 -2
-19 -10 6 -10 4 0 -7 17 -18 15 -40 -3 -33 -8 4 -20 26 -26 50 -6 24 -20 54
-32 66 -18 21 -19 21 -12 3 16 -43 18 -58 7 -51 -6 4 -17 25 -23 47 -11 36
-56 95 -66 86 -7 -7 13 -49 22 -45 9 3 33 -56 34 -88 1 -22 41 -66 41 -45 0 7
16 -8 35 -33 19 -26 35 -49 35 -52 0 -4 -16 10 -35 30 -40 42 -48 25 -10 -20
27 -31 49 -94 42 -122 -2 -9 -7 4 -11 30 -5 26 -14 53 -22 59 -17 14 -18 5 -4
-22 13 -23 6 -24 -19 -2 -11 9 -18 20 -15 25 3 4 -1 11 -10 14 -8 3 -18 24
-21 47 -5 27 -25 64 -56 106 -31 40 -52 79 -55 103 -4 21 -11 38 -16 38 -5 0
-7 -13 -3 -30 4 -19 3 -30 -4 -30 -14 0 -14 -40 0 -60 8 -12 9 -9 5 13 -4 15
-2 27 4 27 10 0 11 -4 15 -50 2 -14 6 -34 10 -45 7 -20 6 -20 -9 -1 -19 23
-22 5 -4 -24 8 -13 9 -23 3 -29 -20 -19 -45 17 -64 90 -13 52 -20 67 -23 49
-4 -23 -1 -35 18 -85 4 -11 8 -29 8 -40 1 -11 6 -20 13 -20 19 0 28 -15 29
-48 1 -18 9 -49 18 -69 16 -38 11 -49 -12 -26 -7 7 -12 23 -12 37 0 32 -14 56
-27 48 -12 -8 -37 42 -34 66 1 10 -4 26 -12 35 -19 22 -31 72 -17 72 15 0 12
16 -9 60 -11 22 -15 40 -10 40 12 0 11 101 -2 120 -8 12 -10 12 -8 -5 1 -11 0
-38 -1 -60 l-2 -40 -10 30 c-6 17 -17 34 -24 38 -8 4 -14 24 -14 42 0 19 -4
35 -8 35 -13 0 -5 -102 8 -110 8 -5 10 -19 5 -39 -4 -19 -3 -31 4 -31 6 0 8 8
4 18 -5 15 -4 15 9 2 18 -17 30 -81 19 -99 -5 -8 -14 1 -25 26 -9 21 -21 45
-25 53 -5 9 -12 31 -16 49 -4 20 -11 29 -16 24 -9 -9 1 -55 23 -100 6 -11 7
-26 4 -32 -4 -6 0 -21 8 -33 15 -24 18 -150 3 -164 -4 -4 -7 2 -7 14 0 12 -5
22 -11 22 -7 0 -9 -8 -5 -20 21 -69 22 -67 -18 -32 -21 18 -41 31 -44 27 -3
-3 11 -19 31 -36 20 -17 37 -38 37 -48 0 -9 7 -27 16 -39 12 -18 18 -19 29 -9
10 9 10 15 1 26 -9 11 -8 13 4 9 8 -2 15 -16 16 -29 1 -43 4 -48 19 -43 9 4
19 -3 26 -20 7 -14 16 -26 21 -26 17 0 7 23 -22 50 -36 34 -39 46 -6 25 19
-13 25 -13 29 -3 3 8 9 2 17 -14 7 -16 17 -28 22 -28 4 0 8 -5 8 -11 0 -5 -4
-7 -10 -4 -16 10 -12 -7 7 -27 18 -20 4 -25 -15 -6 -7 7 -12 8 -12 2 0 -6 5
-15 12 -22 9 -9 9 -12 0 -12 -13 0 -16 -38 -6 -64 3 -9 11 -16 16 -16 6 0 5 6
-2 15 -6 8 -9 19 -5 25 8 13 25 3 25 -15 0 -8 11 -25 24 -39 21 -20 25 -21 28
-8 4 19 58 -67 58 -91 0 -8 7 -17 15 -21 12 -4 14 0 9 22 -4 15 -13 37 -20 50
-8 12 -12 22 -9 22 10 0 40 -36 55 -65 8 -17 16 -33 18 -36 1 -4 -9 -9 -23
-13 -14 -4 -25 -11 -25 -16 0 -14 21 -24 29 -13 3 6 15 13 26 17 17 5 23 0 34
-29 7 -19 17 -35 22 -35 12 0 11 7 -1 30 -8 16 -7 18 4 14 8 -3 17 -15 20 -28
3 -12 19 -32 35 -44 26 -19 30 -20 24 -5 -3 10 -11 23 -18 28 -6 6 -20 22 -29
38 -18 26 -18 27 1 27 10 0 24 -5 31 -12 9 -9 12 -8 12 4 0 9 6 19 13 21 7 4
6 6 -4 6 -18 1 -29 21 -29 52 0 22 35 27 43 7 3 -7 6 -3 6 8 1 28 28 39 40 16
5 -9 7 -30 4 -45 -7 -37 6 -34 19 4 l11 32 14 -27 c8 -15 17 -25 21 -22 3 4 0
12 -6 18 -17 17 -15 38 3 38 8 0 15 -4 15 -9 0 -5 8 -11 17 -13 15 -3 17 -14
14 -88 -3 -95 7 -104 15 -14 5 58 14 87 14 47 0 -28 29 -95 30 -68 0 15 3 16
12 7 9 -9 9 -15 0 -24 -17 -17 -15 -38 3 -38 8 0 15 -7 15 -16 0 -8 5 -24 11
-35 9 -17 13 -18 26 -7 15 12 15 11 4 -10 -7 -13 -10 -26 -7 -30 3 -3 6 0 6 6
0 25 74 -34 86 -69 l12 -34 1 29 1 30 25 -34 c27 -36 24 -54 -6 -45 -22 7 -25
-13 -8 -48 9 -19 7 -18 -10 3 -11 14 -21 21 -21 16 0 -5 -7 -3 -15 4 -30 25
-28 -1 3 -33 30 -31 31 -35 20 -69 -14 -47 0 -85 45 -115 49 -33 71 -33 75 0
2 19 9 27 23 27 10 0 19 -7 19 -15 0 -8 -5 -14 -11 -13 -23 5 -20 -22 3 -32
27 -11 58 -34 58 -44 0 -10 -38 -7 -45 4 -8 13 -25 13 -25 0 0 -5 16 -20 35
-32 19 -13 35 -30 35 -38 0 -9 5 -21 11 -27 8 -8 8 -17 0 -31 -10 -18 -8 -21
16 -24 14 -2 29 -9 31 -17 3 -8 0 -11 -6 -7 -6 3 -13 2 -17 -4 -4 -6 -11 -8
-16 -5 -5 4 -9 0 -9 -8 0 -23 -29 -42 -42 -29 -15 15 -45 16 -53 2 -4 -6 -1
-9 7 -8 8 2 13 -6 12 -19 0 -13 3 -23 8 -23 17 0 7 -27 -14 -37 -13 -6 -35
-16 -49 -23 -20 -9 -32 -9 -47 -1 -11 6 -27 11 -34 10 -7 0 -2 -5 12 -10 23
-10 24 -11 7 -23 -20 -15 -13 -48 9 -39 9 3 12 0 9 -9 -3 -8 -18 -19 -33 -25
l-27 -10 35 -10 35 -9 -28 -7 c-15 -4 -36 -3 -46 2 -21 12 -93 3 -85 -10 3 -5
18 -9 35 -9 38 0 39 -26 0 -33 -16 -3 -36 -14 -46 -23 -13 -14 -18 -15 -25 -4
-4 7 -15 10 -25 7 -25 -10 -15 -50 15 -57 16 -4 24 -12 22 -23 -2 -12 4 -17
24 -17 14 0 40 -6 57 -14 18 -8 40 -16 50 -20 9 -3 17 -10 17 -17 0 -6 -7 -8
-16 -5 -18 7 -64 -18 -64 -34 0 -6 9 -10 20 -10 11 0 20 -6 20 -14 0 -9 -7
-12 -20 -9 -24 6 -25 -5 -5 -34 9 -13 22 -19 34 -16 25 7 38 -17 18 -32 -10
-7 -17 -17 -17 -23 0 -15 28 -23 34 -9 3 8 5 6 5 -3 1 -15 -46 -43 -59 -35 -4
3 -10 -4 -13 -15 -3 -11 -1 -23 4 -26 6 -3 7 -14 4 -25 -5 -14 0 -22 21 -29
28 -11 39 -7 39 13 0 13 40 14 68 2 15 -6 17 -1 17 34 0 49 24 57 33 11 7 -31
33 -42 39 -15 3 13 6 13 28 0 48 -28 52 -28 62 -11 9 16 11 16 28 1 10 -9 23
-14 29 -11 6 4 24 -3 41 -16 20 -14 42 -22 61 -20 32 4 38 -8 14 -28 -8 -7
-15 -19 -15 -28 0 -8 -14 -28 -31 -43 -17 -15 -29 -33 -27 -40 3 -9 12 -5 27
10 16 16 26 20 34 12 7 -7 14 -6 22 5 6 9 32 18 59 20 27 3 57 9 67 15 11 5
24 7 29 4 6 -3 10 1 10 9 0 22 81 38 96 19 7 -8 17 -12 24 -11 18 4 31 -49 19
-79 -8 -21 -7 -24 5 -20 11 4 13 1 9 -10 -5 -13 -2 -15 16 -10 14 3 21 1 18
-6 -2 -7 -13 -13 -25 -15 -23 -4 -20 -32 3 -32 7 0 16 -6 18 -12 4 -10 6 -10
6 0 1 6 7 12 14 12 8 0 13 -9 12 -23 -1 -12 0 -26 3 -31 3 -5 7 -21 8 -35 9
-80 17 -101 35 -101 22 0 24 -11 7 -28 -8 -8 -8 -15 1 -26 7 -9 11 -21 8 -28
-4 -8 -6 -7 -6 5 -1 9 -4 17 -7 17 -11 0 -34 -29 -34 -44 0 -9 -4 -16 -10 -16
-5 0 -10 -6 -10 -13 0 -7 -9 -23 -20 -35 -22 -23 -26 -42 -10 -42 6 0 10 -8
10 -17 1 -14 6 -12 25 10 15 17 25 23 25 14 0 -8 -7 -21 -16 -28 -9 -7 -38
-45 -64 -84 -78 -114 -366 -411 -495 -509 -96 -74 -355 -243 -467 -305 -32
-18 -58 -34 -58 -37 0 -2 1562 -4 3471 -4 3156 0 3470 1 3458 16 -7 8 -30 24
-50 35 -21 10 -45 29 -53 41 -43 62 -356 380 -674 685 -68 65 -135 136 -150
158 -15 22 -54 65 -87 95 -33 30 -68 65 -78 78 -26 31 -38 42 -92 82 -26 19
-80 65 -121 102 -40 38 -77 68 -82 68 -5 0 -23 13 -38 29 -16 15 -62 56 -101
90 -40 34 -79 74 -87 90 -8 15 -41 45 -73 67 -32 21 -83 59 -113 85 -129 106
-172 125 -310 134 -148 9 -169 13 -197 35 -14 11 -30 20 -35 20 -6 0 -27 13
-48 30 -33 26 -46 30 -96 29 -33 0 -81 -4 -109 -9 -88 -16 -279 -40 -320 -40
-37 0 -48 7 -115 70 -119 112 -195 159 -257 160 -12 0 -42 9 -68 20 -26 11
-55 20 -66 20 -10 0 -19 5 -19 10 0 6 -20 10 -44 10 -38 0 -52 6 -90 39 -31
27 -61 43 -96 50 -72 15 -84 14 -190 -19 -51 -17 -104 -30 -117 -30 -13 0 -57
16 -99 36 -41 19 -97 42 -124 50 -37 11 -56 24 -79 56 -17 23 -31 47 -31 53 0
7 -18 46 -41 89 -55 105 -53 113 46 142 44 13 100 23 125 24 26 0 50 4 55 9 6
6 36 12 68 14 47 4 64 10 88 33 25 24 32 27 49 16 18 -11 23 -7 46 28 20 29
38 43 68 52 50 15 136 100 136 136 0 12 11 33 25 46 14 13 25 30 25 39 0 9 11
33 25 53 14 20 25 45 25 55 0 10 6 22 14 26 22 13 27 108 9 177 -9 33 -22 68
-30 77 -7 8 -13 24 -13 35 0 10 -12 53 -26 94 -17 49 -26 96 -26 134 1 33 -5
71 -13 86 -17 33 -10 90 30 225 37 128 83 240 116 281 31 39 45 102 36 166 -5
39 3 66 30 95 6 7 14 26 18 42 3 16 17 39 31 51 13 13 24 28 24 34 0 5 11 26
24 45 14 20 29 63 35 96 9 49 8 66 -5 102 -9 23 -20 40 -24 38 -5 -3 -8 15 -8
39 1 31 -5 50 -20 67 -12 12 -22 28 -22 35 0 7 -4 15 -9 18 -13 9 -111 -31
-130 -53 -13 -15 -21 -17 -28 -10 -14 14 -33 3 -33 -17 0 -8 9 -14 20 -14 24
0 26 -13 5 -30 -13 -11 -18 -8 -17 10 0 3 -6 11 -14 18 -11 10 -15 8 -24 -8
-12 -23 -35 -28 -27 -5 4 8 2 17 -4 20 -5 4 -12 -1 -15 -9 -3 -9 -10 -13 -15
-10 -5 3 -6 -2 -2 -12 5 -14 0 -16 -35 -12 -25 2 -42 -1 -42 -7 0 -5 -4 -4 -9
4 -7 11 -14 10 -40 -8 -17 -12 -31 -18 -31 -13 0 15 -49 32 -94 32 -27 0 -46
5 -49 13 -5 13 -47 15 -84 3 -15 -5 -22 -1 -26 14 -6 25 -27 27 -27 2 0 -10
-12 -22 -30 -29 -26 -10 -30 -9 -36 9 -3 11 -12 17 -20 14 -7 -3 -18 2 -23 11
-7 14 -10 13 -16 -6 -4 -12 -14 -21 -23 -20 -9 1 -19 0 -22 -1 -3 -1 -15 -3
-28 -6 -13 -2 -48 -15 -78 -29 -30 -14 -61 -25 -69 -25 -8 0 -18 -8 -24 -17
-7 -14 -12 -15 -24 -5 -8 7 -34 15 -58 18 -24 3 -51 6 -61 8 -9 1 -22 7 -30
13 -20 17 -77 13 -91 -7 -14 -20 -57 -44 -57 -33 0 5 9 14 20 21 11 7 20 18
20 25 1 21 58 77 73 71 9 -3 17 3 20 17 4 16 11 20 26 16 12 -3 22 0 23 6 3
26 5 33 18 60 12 24 19 28 41 23 31 -6 39 6 39 59 0 47 9 65 28 58 9 -4 20
-11 24 -17 14 -21 21 5 11 39 -9 28 -8 35 2 35 7 0 17 -17 22 -37 7 -30 14
-37 29 -35 15 2 16 1 5 -7 -12 -8 -12 -12 -2 -25 12 -15 15 -15 27 1 16 21 19
73 4 73 -5 0 -10 9 -10 20 0 11 7 20 15 20 18 0 20 38 2 61 -12 15 -77 43 -77
33 0 -3 10 -18 21 -33 20 -27 19 -51 -1 -51 -5 0 -17 16 -26 35 -10 22 -23 35
-35 35 -24 0 -24 -5 1 -30 28 -28 14 -48 -14 -21 -33 31 -65 24 -34 -7 9 -9 8
-12 -4 -12 -9 0 -19 11 -22 25 -6 24 -46 37 -46 15 0 -5 5 -10 10 -10 6 0 10
-5 10 -11 0 -6 -9 -8 -20 -4 -17 5 -20 2 -20 -23 0 -32 -29 -49 -49 -29 -13
13 -15 30 -2 22 14 -8 25 35 12 48 -8 8 -11 8 -11 -1 0 -7 -4 -12 -10 -12 -5
0 -7 7 -3 16 4 10 0 22 -9 28 -8 6 -20 20 -26 31 -6 11 -12 16 -12 12z m187
-159 c-3 -8 -6 -5 -6 6 -1 11 2 17 5 13 3 -3 4 -12 1 -19z m-216 -17 c-7 -13
-8 -22 -1 -26 5 -3 15 5 21 19 7 14 18 27 25 30 17 7 12 -67 -6 -89 -16 -19
-30 -19 -30 0 0 22 -29 30 -43 12 -18 -23 -57 -32 -57 -13 0 9 11 16 27 18 21
2 32 13 46 42 10 21 21 36 23 33 3 -3 1 -14 -5 -26z m165 -19 c-4 -3 -14 2
-24 12 -16 18 -16 18 6 6 13 -6 21 -14 18 -18z m-229 -14 c-3 -8 -6 -5 -6 6
-1 11 2 17 5 13 3 -3 4 -12 1 -19z m288 -48 c3 -5 -1 -10 -9 -10 -9 0 -16 5
-16 10 0 6 4 10 9 10 6 0 13 -4 16 -10z m-220 -29 c3 -5 1 -12 -5 -16 -5 -3
-10 1 -10 9 0 18 6 21 15 7z m125 -60 c0 -23 -16 -36 -25 -21 -9 14 1 40 15
40 5 0 10 -9 10 -19z m-300 -36 c0 -8 8 -18 17 -24 10 -5 14 -13 10 -18 -10
-9 -47 33 -47 54 0 8 5 11 10 8 6 -3 10 -12 10 -20z m243 -5 c-4 -17 -8 -18
-20 -8 -13 10 -13 13 4 19 10 4 19 8 20 8 0 1 -1 -8 -4 -19z m-136 -42 c-3 -7
-5 -2 -5 12 0 14 2 19 5 13 2 -7 2 -19 0 -25z m-137 -43 c0 -5 -5 -3 -10 5 -5
8 -10 20 -10 25 0 6 5 3 10 -5 5 -8 10 -19 10 -25z m25 -64 c3 -5 2 -12 -3
-15 -5 -3 -9 1 -9 9 0 17 3 19 12 6z m90 -10 c-3 -6 -11 -11 -17 -11 -6 0 -6
6 2 15 14 17 26 13 15 -4z m-185 -31 c0 -5 -7 -10 -15 -10 -8 0 -15 5 -15 10
0 6 7 10 15 10 8 0 15 -4 15 -10z m-60 -50 c-6 -11 -15 -20 -20 -20 -14 0 -12
27 3 33 23 10 28 7 17 -13z m70 -22 c0 -16 -3 -17 -20 -8 -11 6 -20 15 -20 21
0 6 5 7 12 3 8 -5 9 -2 4 11 -5 15 -4 16 9 5 8 -7 15 -21 15 -32z m166 14
c-18 -16 -18 -16 -6 6 6 13 14 21 18 18 3 -4 -2 -14 -12 -24z m-106 -15 c0
-26 -4 -33 -20 -34 -11 -1 -20 2 -20 8 0 5 4 9 9 9 5 0 12 11 15 25 9 35 16
31 16 -8z m-161 -9 c5 -15 5 -28 -2 -36 -9 -11 -12 -11 -18 5 -5 14 -8 9 -14
-19 -10 -52 -24 -48 -22 6 1 24 5 39 9 33 5 -8 10 -4 14 11 4 12 10 22 15 22
6 0 13 -10 18 -22z m1611 -332 c0 -11 -19 -15 -25 -6 -3 5 1 10 9 10 9 0 16
-2 16 -4z m-2508 -388 c-9 -16 -23 -34 -29 -40 -20 -16 -16 24 4 61 13 22 21
27 30 19 10 -8 9 -16 -5 -40z m-826 -23 c3 -14 3 -37 -1 -52 -9 -37 -25 -12
-25 40 0 42 16 50 26 12z m465 -50 c-14 -57 -14 -75 0 -55 8 11 9 9 3 -10 -8
-31 -10 -34 -23 -25 -13 8 -14 46 -2 77 5 13 13 37 17 53 3 17 9 24 11 17 3
-7 0 -33 -6 -57z m-65 -50 c3 -24 13 -47 25 -57 17 -14 20 -24 13 -45 l-7 -28
-7 30 -6 30 -7 -25 c-4 -14 -7 -35 -7 -47 0 -12 -5 -25 -11 -29 -14 -8 -29 14
-29 44 0 13 -4 20 -10 17 -6 -4 -10 7 -10 25 0 17 -8 48 -19 70 l-18 38 23 13
c13 7 22 15 19 17 -3 3 3 14 12 24 17 19 18 19 26 -9 5 -15 11 -46 13 -68z
m1504 91 c0 -2 3 -11 6 -20 7 -19 -60 -86 -88 -86 -27 0 -16 35 25 78 26 27
57 42 57 28z m-140 -26 c0 -5 -4 -10 -10 -10 -5 0 -10 5 -10 10 0 6 5 10 10
10 6 0 10 -4 10 -10z m-1731 -77 c1 -7 -3 -13 -8 -13 -14 0 -20 25 -13 52 l6
23 7 -25 c4 -14 7 -31 8 -37z m3008 2 c-4 -8 -11 -15 -17 -15 -6 0 -6 7 2 20
14 22 24 19 15 -5z m-2476 -64 c7 11 9 8 10 -11 0 -14 3 -37 5 -52 2 -14 0
-29 -6 -33 -6 -4 -10 8 -10 29 0 27 -3 34 -15 30 -12 -5 -15 2 -15 29 0 55 14
81 18 33 3 -29 6 -36 13 -25z m-553 -7 c2 -21 11 -57 21 -79 17 -40 15 -115
-3 -87 -4 7 -5 16 -2 19 3 3 1 12 -5 19 -6 8 -18 46 -25 86 -17 89 -17 91 -2
86 7 -3 14 -22 16 -44z m-34 -26 c-14 -23 -53 10 -54 46 0 17 4 16 30 -9 16
-15 27 -32 24 -37z m233 1 c-5 -39 -3 -58 3 -54 6 3 10 14 10 23 0 14 2 13 13
-3 15 -21 41 -115 34 -121 -9 -9 -47 35 -47 55 0 26 -12 27 -35 1 -16 -17 -16
-20 -3 -15 22 9 40 -27 32 -61 l-7 -27 -14 27 c-16 30 -25 34 -23 9 1 -10 -1
-29 -6 -42 l-7 -25 -9 24 c-5 13 -4 27 1 34 13 15 12 97 -1 113 -12 16 7 53
28 53 10 0 14 6 10 15 -5 14 12 55 23 55 2 0 1 -27 -2 -61z m-311 9 c9 -18 21
-36 26 -39 6 -4 8 -15 6 -25 -4 -16 -7 -14 -16 9 -7 16 -19 35 -27 43 -14 14
-21 44 -10 44 2 0 12 -15 21 -32z m714 -10 c-1 -35 -3 -40 -11 -25 -10 17 -5
67 6 67 3 0 5 -19 5 -42z m-125 -15 c5 -26 3 -33 -9 -33 -12 0 -16 10 -16 42
0 47 14 42 25 -9z m-1188 -5 c-3 -8 -6 -5 -6 6 -1 11 2 17 5 13 3 -3 4 -12 1
-19z m259 -66 c-4 -3 -11 0 -16 8 -9 13 -10 13 -10 0 0 -8 -9 -1 -20 16 -12
18 -18 39 -14 48 5 13 12 9 36 -24 17 -23 27 -44 24 -48z m194 47 c0 10 3 11
13 2 8 -6 16 -8 19 -5 3 3 9 1 13 -5 4 -7 -5 -10 -26 -7 -18 2 -35 9 -37 17
-3 11 -1 10 7 -1 8 -12 11 -12 11 -1z m-400 -54 c11 -18 20 -37 19 -42 -4 -21
2 -33 16 -33 8 0 15 -9 15 -20 0 -11 5 -20 11 -20 5 0 7 -4 4 -10 -3 -5 3 -20
14 -32 12 -12 21 -28 21 -35 0 -7 6 -13 14 -13 8 0 16 -6 19 -14 3 -8 15 -12
30 -9 20 4 30 -3 56 -42 35 -52 39 -64 14 -44 -15 13 -15 12 -6 -6 11 -23 -2
-89 -16 -80 -5 3 -7 15 -3 27 3 13 1 19 -5 15 -5 -4 -16 5 -23 18 -7 13 -17
22 -22 19 -4 -3 -8 5 -8 18 0 18 2 20 10 8 5 -8 12 -11 16 -7 4 4 13 2 21 -4
7 -6 13 -7 13 -3 0 5 -9 15 -20 22 -11 7 -20 19 -20 27 0 27 -20 16 -26 -15
-4 -16 -11 -30 -16 -30 -6 0 -8 7 -4 15 3 9 -9 30 -29 52 -19 21 -35 45 -35
53 -1 24 -28 53 -44 47 -8 -3 -20 1 -26 9 -7 8 -18 14 -25 14 -23 0 -37 28
-28 55 9 29 27 34 29 8 3 -29 23 -73 33 -73 5 0 3 12 -5 28 -7 15 -14 35 -14
45 0 11 -9 32 -21 48 -24 34 -19 70 6 49 8 -7 24 -27 35 -45z m630 41 c0 -8
-4 -17 -9 -20 -10 -7 -23 19 -14 28 11 11 23 6 23 -8z m341 -27 c-5 -13 -10
-19 -10 -12 -1 15 10 45 15 40 3 -2 0 -15 -5 -28z m119 -14 c0 -51 -16 -50
-19 1 -1 30 2 44 8 39 6 -3 11 -21 11 -40z m2680 35 c0 -5 -2 -10 -4 -10 -3 0
-8 5 -11 10 -3 6 -1 10 4 10 6 0 11 -4 11 -10z m-2607 -57 c6 -28 4 -33 -13
-33 -21 0 -26 23 -13 69 7 27 17 14 26 -36z m-218 37 c3 -5 1 -10 -4 -10 -6 0
-11 5 -11 10 0 6 2 10 4 10 3 0 8 -4 11 -10z m1360 -36 c-9 -16 -14 -21 -11
-11 3 10 6 28 6 40 0 15 3 18 11 10 8 -8 6 -19 -6 -39z m-1840 26 c3 -5 1 -10
-4 -10 -6 0 -11 5 -11 10 0 6 2 10 4 10 3 0 8 -4 11 -10z m68 -23 c-5 -8 -8
-7 -11 1 -6 18 -22 14 -23 -5 0 -12 -2 -13 -6 -5 -8 21 17 44 33 31 8 -6 11
-16 7 -22z m3264 -30 c-2 -6 -11 0 -21 15 -10 15 -14 32 -10 39 8 14 37 -36
31 -54z m-3607 1 c36 -36 43 -56 22 -60 -12 -3 -8 -8 16 -18 17 -8 32 -19 32
-23 0 -5 5 -5 11 -2 12 8 49 -23 49 -42 0 -7 3 -13 8 -13 8 0 32 -93 32 -120
-1 -19 -50 40 -50 59 0 22 -23 81 -31 81 -4 0 -3 -16 3 -36 5 -20 7 -38 4 -41
-3 -3 -8 6 -11 20 -4 14 -18 35 -31 48 l-24 22 0 -21 c0 -20 -2 -21 -27 -10
-42 18 -61 37 -62 61 0 12 -4 43 -7 70 -3 26 -3 54 0 63 7 18 14 14 66 -38z
m193 -2 c18 -4 18 -7 7 -21 -12 -15 -15 -14 -26 7 -6 13 -14 34 -17 48 -6 24
-6 24 5 -2 6 -14 20 -29 31 -32z m257 33 c0 -6 -4 -7 -10 -4 -5 3 -10 11 -10
16 0 6 5 7 10 4 6 -3 10 -11 10 -16z m390 14 c0 -5 -5 -15 -10 -23 -8 -12 -10
-11 -10 8 0 12 5 22 10 22 6 0 10 -3 10 -7z m211 -10 c7 -64 7 -106 -1 -93 -8
13 -10 13 -10 -2 0 -9 5 -18 12 -20 9 -3 9 -6 0 -12 -8 -4 -16 2 -22 19 -13
33 -13 52 0 60 6 3 7 17 4 31 -4 14 -2 24 5 24 6 0 11 -3 12 -7z m-451 -19 c0
-8 -4 -12 -10 -9 -5 3 -10 10 -10 16 0 5 5 9 10 9 6 0 10 -7 10 -16z m171 -46
c8 -18 8 -32 0 -45 -9 -15 -10 -12 -11 18 0 19 -5 40 -10 45 -6 6 -7 19 -3 30
7 18 8 18 11 -1 2 -11 8 -32 13 -47z m829 46 c0 -8 5 -12 10 -9 6 3 10 -3 10
-14 0 -11 -4 -23 -10 -26 -5 -3 -10 -16 -10 -28 0 -18 -2 -19 -10 -7 -13 20
-13 100 0 100 6 0 10 -7 10 -16z m-1069 -27 c-8 -8 -11 -7 -11 4 0 20 13 34
18 19 3 -7 -1 -17 -7 -23z m-111 -18 c0 -11 -4 -17 -10 -14 -5 3 -10 13 -10
21 0 8 5 14 10 14 6 0 10 -9 10 -21z m1530 -13 c0 -11 -9 -36 -20 -53 -21 -35
-38 -46 -20 -14 5 11 10 29 10 40 0 10 6 22 13 25 10 5 10 7 0 12 -18 8 -16
25 2 18 8 -4 15 -16 15 -28z m177 12 c-3 -8 -6 -5 -6 6 -1 11 2 17 5 13 3 -3
4 -12 1 -19z m-1877 -36 c0 -9 -7 -11 -22 -6 -31 9 -31 9 -18 34 11 21 12 21
25 3 8 -10 15 -24 15 -31z m697 11 c-3 -10 -5 -4 -5 12 0 17 2 24 5 18 2 -7 2
-21 0 -30z m140 -5 c-3 -7 -5 -2 -5 12 0 14 2 19 5 13 2 -7 2 -19 0 -25z
m1017 1 c-10 -16 -24 -9 -24 12 0 18 2 19 15 9 8 -7 12 -16 9 -21z m1461 11
c-3 6 -1 10 5 10 10 0 30 -40 30 -60 0 -13 -31 0 -57 24 -30 28 -29 38 3 26
16 -7 23 -7 19 0z m-65 -21 c0 -6 -4 -7 -10 -4 -5 3 -10 11 -10 16 0 6 5 7 10
4 6 -3 10 -11 10 -16z m-2189 -16 c-12 -20 -14 -14 -5 12 4 9 9 14 11 11 3 -2
0 -13 -6 -23z m-192 -35 c0 -28 -2 -30 -9 -13 -12 28 -12 45 0 45 6 0 10 -15
9 -32z m239 7 c-3 -3 -9 2 -12 12 -6 14 -5 15 5 6 7 -7 10 -15 7 -18z m82 5
c0 -11 -4 -20 -10 -20 -5 0 -10 9 -10 20 0 11 5 20 10 20 6 0 10 -9 10 -20z
m-219 -61 l-7 -34 -7 38 c-3 21 -3 45 0 54 11 28 22 -19 14 -58z m-1027 55 c8
-3 12 -12 9 -20 -4 -11 -9 -12 -19 -3 -8 6 -14 15 -14 20 0 11 3 11 24 3z
m1459 -31 c-3 -18 -9 -33 -14 -33 -12 0 -11 14 3 45 14 32 17 29 11 -12z
m1933 10 c27 -32 32 -52 8 -32 -13 10 -17 10 -25 -2 -5 -8 -9 -12 -9 -9 0 3
-4 20 -9 38 -12 40 3 42 35 5z m-1480 -20 c-10 -10 -19 5 -10 18 6 11 8 11 12
0 2 -7 1 -15 -2 -18z m-215 -6 c-10 -9 -11 -8 -5 6 3 10 9 15 12 12 3 -3 0
-11 -7 -18z m188 4 c7 -13 6 -32 -3 -62 -9 -29 -14 -36 -15 -21 -1 12 -7 22
-16 22 -8 0 -15 9 -15 19 0 10 7 21 15 25 8 3 15 12 15 21 0 20 7 19 19 -4z
m-750 -42 c-9 -6 -15 -4 -17 6 -2 9 -8 13 -13 10 -11 -7 -11 -3 -3 20 6 14 9
13 27 -6 16 -17 17 -23 6 -30z m287 29 c-3 -13 -6 -31 -6 -40 0 -11 -5 -15
-15 -12 -9 4 -15 19 -15 36 0 17 4 27 10 23 6 -3 10 -1 10 4 0 6 5 11 11 11 7
0 9 -9 5 -22z m334 -25 c-15 -32 -25 -16 -15 24 4 19 9 23 17 15 9 -9 8 -19
-2 -39z m-1758 -15 c-7 -7 -12 -8 -12 -2 0 14 12 26 19 19 2 -3 -1 -11 -7 -17z
m3361 2 c-3 -12 -8 -19 -11 -16 -5 6 5 36 12 36 2 0 2 -9 -1 -20z m101 -35 l6
-40 -19 40 c-11 21 -17 43 -14 48 9 15 21 -6 27 -48z m-3416 23 c7 -7 12 -26
12 -42 l0 -31 -20 38 c-11 20 -20 39 -20 42 0 9 16 5 28 -7z m1616 -12 c-3 -9
-10 -16 -15 -16 -6 0 -5 9 1 21 13 24 24 20 14 -5z m-1539 -59 c10 -20 12 -35
5 -47 -12 -23 -13 -33 -1 -26 5 3 11 -1 15 -9 8 -22 -21 -18 -34 4 -5 11 -10
28 -10 39 0 11 -7 33 -15 48 -8 16 -15 35 -15 43 0 20 36 -14 55 -52z m1712
-9 c-5 -3 -19 4 -29 15 l-19 22 4 -30 c6 -34 -5 -60 -28 -69 -10 -4 -15 1 -15
15 0 12 4 18 11 13 8 -5 10 4 7 30 -2 20 0 36 5 36 5 0 7 6 4 14 -3 8 -1 17 6
19 16 6 68 -56 54 -65z m-426 49 c-1 -12 -15 -9 -19 4 -3 6 1 10 8 8 6 -3 11
-8 11 -12z m1919 -7 c0 -5 -5 -10 -11 -10 -5 0 -7 5 -4 10 3 6 8 10 11 10 2 0
4 -4 4 -10z m-1163 -71 c-14 -30 -27 -61 -30 -69 -4 -11 -6 -9 -6 5 -1 31 19
95 29 95 6 0 10 10 10 22 0 15 3 19 11 11 7 -7 3 -26 -14 -64z m-1967 -11 c0
-30 -24 -20 -41 17 -9 19 -14 36 -12 39 9 9 53 -38 53 -56z m50 45 c0 -7 -4
-13 -8 -13 -5 0 -16 6 -25 13 -16 11 -15 12 8 12 14 0 25 -6 25 -12z m-470
-19 c0 -12 -4 -12 -20 -4 -11 6 -18 15 -15 20 8 13 35 0 35 -16z m3449 -17 c1
-5 -3 -5 -9 -2 -5 3 -10 16 -9 28 0 21 1 21 9 2 5 -11 9 -24 9 -28z m-3346 -8
c-3 -10 -9 -19 -14 -19 -11 0 -12 21 -3 45 9 23 23 0 17 -26z m457 6 c0 -19
-4 -35 -10 -35 -5 0 -7 7 -4 15 4 8 0 23 -7 32 -10 12 -10 15 -1 9 6 -4 12 -2
12 3 0 6 2 11 5 11 3 0 5 -16 5 -35z m-380 -6 c0 -6 -4 -7 -10 -4 -5 3 -10 11
-10 16 0 6 5 7 10 4 6 -3 10 -11 10 -16z m2907 -11 c-3 -7 -5 -2 -5 12 0 14 2
19 5 13 2 -7 2 -19 0 -25z m-1040 -40 c-2 -13 -4 -3 -4 22 0 25 2 35 4 23 2
-13 2 -33 0 -45z m133 37 c0 -8 -4 -15 -10 -15 -5 0 -7 7 -4 15 4 8 8 15 10
15 2 0 4 -7 4 -15z m-1897 -29 c-3 -4 -9 -2 -14 5 -13 22 -11 31 5 17 8 -7 12
-17 9 -22z m323 -33 c-11 -11 -26 10 -26 35 l1 27 15 -28 c9 -16 13 -31 10
-34z m-456 12 c0 -8 -4 -17 -10 -20 -6 -4 -10 5 -10 20 0 15 4 24 10 20 6 -3
10 -12 10 -20z m287 -7 c-3 -7 -5 -2 -5 12 0 14 2 19 5 13 2 -7 2 -19 0 -25z
m2339 5 c-10 -10 -19 5 -10 18 6 11 8 11 12 0 2 -7 1 -15 -2 -18z m-311 -20
c-10 -55 -25 -65 -25 -17 0 41 5 54 23 54 5 0 6 -16 2 -37z m355 22 c0 -8 -4
-15 -10 -15 -5 0 -10 7 -10 15 0 8 5 15 10 15 6 0 10 -7 10 -15z m-2700 -25
c12 -23 12 -24 -3 -11 -10 7 -17 20 -17 29 0 18 3 16 20 -18z m2151 -1 c-9
-22 -10 -22 -10 -3 -1 11 2 24 6 27 12 12 14 0 4 -24z m229 -36 c-19 -24 -20
-24 -20 -5 0 11 5 24 10 27 6 4 8 11 5 16 -4 5 -3 14 1 21 5 7 10 4 16 -11 6
-17 3 -30 -12 -48z m-143 21 c-9 -9 -27 6 -27 22 0 13 2 13 16 -1 9 -9 14 -18
11 -21z m745 1 c-2 -14 -9 -28 -15 -32 -7 -4 -8 0 -4 11 4 10 7 27 7 37 0 11
4 18 9 15 4 -3 6 -17 3 -31z m-2922 4 c0 -11 -4 -17 -10 -14 -5 3 -10 13 -10
21 0 8 5 14 10 14 6 0 10 -9 10 -21z m1526 -5 c-4 -9 -9 -15 -11 -12 -3 3 -3
13 1 22 4 9 9 15 11 12 3 -3 3 -13 -1 -22z m915 -7 c-8 -8 -11 -7 -11 4 0 20
13 34 18 19 3 -7 -1 -17 -7 -23z m674 -13 c-23 -36 -29 -24 -8 17 9 18 18 28
21 21 2 -7 -4 -24 -13 -38z m-3075 0 c0 -15 -6 -24 -15 -24 -15 0 -21 40 -9
53 12 11 24 -3 24 -29z m2724 11 c6 -17 -9 -29 -24 -20 -5 3 -10 15 -10 25 0
22 25 18 34 -5z m261 15 c3 -5 1 -10 -4 -10 -6 0 -11 5 -11 10 0 6 2 10 4 10
3 0 8 -4 11 -10z m-2645 -50 c0 -5 -5 -10 -11 -10 -5 0 -7 5 -4 10 3 6 8 10
11 10 2 0 4 -4 4 -10z m2590 -13 c0 -7 -15 -21 -32 -31 l-33 -19 29 32 c33 35
36 36 36 18z m-638 -32 c3 -14 2 -25 -2 -25 -4 0 -10 13 -12 29 -5 36 8 32 14
-4z m-1932 4 c0 -6 -4 -7 -10 -4 -5 3 -10 11 -10 16 0 6 5 7 10 4 6 -3 10 -11
10 -16z m-15 -40 c4 -10 4 -23 0 -28 -3 -5 -1 -12 5 -16 5 -3 15 -16 21 -27
11 -21 11 -21 -20 1 -37 26 -49 43 -33 49 7 2 4 15 -8 38 l-20 34 25 -16 c13
-9 27 -24 30 -35z m2322 4 c-3 -10 -5 -4 -5 12 0 17 2 24 5 18 2 -7 2 -21 0
-30z m88 -60 l-16 -28 6 30 c3 17 9 44 13 60 l7 30 3 -32 c2 -18 -4 -45 -13
-60z m-625 47 c-6 -12 -14 -19 -17 -17 -2 3 1 15 7 27 6 12 14 19 17 17 2 -3
-1 -15 -7 -27z m-1750 -11 c0 -11 -4 -17 -10 -14 -5 3 -10 13 -10 21 0 8 5 14
10 14 6 0 10 -9 10 -21z m43 -4 c-7 -21 -13 -19 -13 6 0 11 4 18 10 14 5 -3 7
-12 3 -20z m744 -27 c-3 -7 -5 -2 -5 12 0 14 2 19 5 13 2 -7 2 -19 0 -25z
m-708 15 c-1 -5 -1 -25 0 -47 1 -29 4 -37 16 -32 10 4 15 -1 15 -16 0 -21 0
-21 -25 2 -17 16 -25 19 -25 9 -1 -10 -5 -8 -15 5 -8 11 -15 29 -15 40 1 20 2
19 14 -3 14 -26 33 -13 22 15 -3 9 -4 20 0 25 6 11 14 12 13 2z m2262 -76
c-10 -9 -11 -8 -5 6 3 10 9 15 12 12 3 -3 0 -11 -7 -18z m-2211 -57 c0 -5 -4
-10 -10 -10 -5 0 -10 5 -10 10 0 6 5 10 10 10 6 0 10 -4 10 -10z m1039 -70 c0
-15 -28 48 -28 65 0 11 6 2 14 -20 8 -22 15 -42 14 -45z m-1042 -2 c-3 -8 -6
-5 -6 6 -1 11 2 17 5 13 3 -3 4 -12 1 -19z m43 -33 c0 -8 -2 -15 -4 -15 -2 0
-6 7 -10 15 -3 8 -1 15 4 15 6 0 10 -7 10 -15z m1309 -59 c-1 -15 -28 46 -28
64 0 8 6 0 14 -19 8 -18 15 -38 14 -45z m-1269 24 c0 -13 -1 -13 -10 0 -5 8
-10 22 -10 30 0 13 1 13 10 0 5 -8 10 -22 10 -30z m-100 0 c0 -5 -5 -10 -11
-10 -5 0 -7 5 -4 10 3 6 8 10 11 10 2 0 4 -4 4 -10z m1507 -57 c-3 -10 -5 -4
-5 12 0 17 2 24 5 18 2 -7 2 -21 0 -30z m-1447 5 c0 -5 -5 -6 -12 -2 -8 5 -9
0 -6 -14 9 -32 -8 -27 -20 6 -9 27 -8 29 14 24 13 -2 24 -9 24 -14z m120 12
c0 -5 -4 -10 -10 -10 -5 0 -10 5 -10 10 0 6 5 10 10 10 6 0 10 -4 10 -10z
m-190 -32 c30 -33 26 -57 -5 -28 -14 13 -25 29 -25 37 0 18 6 16 30 -9z m337
-40 c-4 -9 -6 -7 -6 5 -1 9 -8 17 -16 17 -8 0 -15 7 -15 15 0 13 4 12 21 -4
12 -11 19 -25 16 -33z m-177 7 c0 -5 -5 -3 -10 5 -5 8 -10 20 -10 25 0 6 5 3
10 -5 5 -8 10 -19 10 -25z m-174 -22 c-3 -8 -2 -12 2 -9 4 3 13 -4 20 -15 10
-15 10 -19 0 -19 -24 0 -38 16 -45 50 -6 32 -5 34 11 21 9 -8 15 -20 12 -28z
m99 27 c3 -5 1 -10 -4 -10 -6 0 -11 5 -11 10 0 6 2 10 4 10 3 0 8 -4 11 -10z
m125 -18 c0 -15 -2 -15 -10 -2 -13 20 -13 33 0 25 6 -3 10 -14 10 -23z m487 6
c-3 -8 -6 -5 -6 6 -1 11 2 17 5 13 3 -3 4 -12 1 -19z m-517 -8 c0 -5 -5 -10
-11 -10 -5 0 -7 5 -4 10 3 6 8 10 11 10 2 0 4 -4 4 -10z m-130 -20 c0 -5 -4
-10 -10 -10 -5 0 -10 5 -10 10 0 6 5 10 10 10 6 0 10 -4 10 -10z m150 -46 c0
-8 4 -13 9 -9 5 3 12 1 15 -4 8 -13 -9 -22 -27 -15 -8 3 -14 16 -14 29 0 14 3
22 8 19 5 -3 9 -12 9 -20z m55 -104 c3 -5 1 -10 -4 -10 -6 0 -11 5 -11 10 0 6
2 10 4 10 3 0 8 -4 11 -10z m83 -105 c-3 -3 -9 2 -12 12 -6 14 -5 15 5 6 7 -7
10 -15 7 -18z m-298 -795 c0 -5 -4 -10 -10 -10 -5 0 -10 5 -10 10 0 6 5 10 10
10 6 0 10 -4 10 -10z m-70 -15 c-13 -16 -40 -20 -40 -7 0 14 12 22 33 22 16 0
17 -3 7 -15z m558 -125 c-13 -21 -28 -27 -28 -10 0 5 8 14 18 19 23 14 24 14
10 -9z m302 -166 c0 -8 -4 -12 -10 -9 -5 3 -10 10 -10 16 0 5 5 9 10 9 6 0 10
-7 10 -16z"/>
<path d="M7010 4011 c0 -6 4 -13 10 -16 6 -3 7 1 4 9 -7 18 -14 21 -14 7z"/>
<path d="M7050 3948 c0 -19 2 -20 10 -8 13 19 13 30 0 30 -5 0 -10 -10 -10
-22z"/>
<path d="M5611 5454 c0 -11 3 -14 6 -6 3 7 2 16 -1 19 -3 4 -6 -2 -5 -13z"/>
<path d="M8861 5454 c0 -11 3 -14 6 -6 3 7 2 16 -1 19 -3 4 -6 -2 -5 -13z"/>
<path d="M9480 5453 c0 -13 5 -23 10 -23 13 0 13 11 0 30 -8 12 -10 11 -10 -7z"/>
<path d="M8702 5415 c0 -16 2 -22 5 -12 2 9 2 23 0 30 -3 6 -5 -1 -5 -18z"/>
<path d="M10026 5412 c-3 -5 1 -15 9 -22 16 -14 20 -3 6 19 -5 8 -11 9 -15 3z"/>
<path d="M9181 5388 c-10 -28 -2 -138 10 -138 9 0 14 52 10 105 -2 29 -1 29
14 10 15 -18 15 -17 0 13 -18 38 -23 39 -34 10z"/>
<path d="M9576 5401 c-4 -7 -5 -15 -2 -18 9 -9 19 4 14 18 -4 11 -6 11 -12 0z"/>
<path d="M9315 5370 c3 -5 11 -10 16 -10 6 0 7 5 4 10 -3 6 -11 10 -16 10 -6
0 -7 -4 -4 -10z"/>
<path d="M8486 5295 c-22 -34 -20 -43 4 -15 18 21 26 40 16 40 -2 0 -11 -11
-20 -25z"/>
<path d="M10060 5301 c0 -6 5 -13 10 -16 6 -3 10 1 10 9 0 9 -4 16 -10 16 -5
0 -10 -4 -10 -9z"/>
<path d="M5606 5235 c4 -22 11 -47 16 -55 6 -10 7 -3 2 20 -10 54 -25 83 -18
35z"/>
<path d="M3150 5240 c0 -5 5 -10 10 -10 6 0 10 5 10 10 0 6 -4 10 -10 10 -5 0
-10 -4 -10 -10z"/>
<path d="M8570 5230 c0 -11 5 -20 10 -20 6 0 10 9 10 20 0 11 -4 20 -10 20 -5
0 -10 -9 -10 -20z"/>
<path d="M5151 5204 c-24 -19 -50 -34 -57 -34 -8 0 -14 -7 -14 -16 0 -12 6
-15 23 -9 12 4 31 6 42 6 62 -4 78 -2 92 12 13 13 14 19 3 31 -7 9 -18 16 -25
16 -8 0 -15 6 -17 14 -2 10 -16 4 -47 -20z"/>
<path d="M3297 5119 c7 -7 15 -10 18 -7 3 3 -2 9 -12 12 -14 6 -15 5 -6 -5z"/>
<path d="M5068 5118 c-2 -5 -20 -10 -40 -11 -29 -2 -34 -5 -25 -15 9 -11 6
-13 -13 -10 -15 2 -33 -5 -43 -15 -10 -10 -28 -17 -40 -16 -32 3 -57 -11 -57
-31 0 -17 4 -17 60 -4 33 8 77 21 98 30 110 48 127 52 148 35 11 -9 18 -23 16
-31 -2 -10 5 -16 18 -16 14 0 23 10 31 34 14 44 2 58 -38 45 -18 -7 -37 -7
-53 0 -34 13 -59 15 -62 5z"/>
<path d="M8915 5111 c-6 -11 9 -23 19 -14 9 9 7 23 -3 23 -6 0 -12 -4 -16 -9z"/>
<path d="M5921 5094 c0 -11 3 -14 6 -6 3 7 2 16 -1 19 -3 4 -6 -2 -5 -13z"/>
<path d="M4812 5080 c0 -14 2 -19 5 -12 2 6 2 18 0 25 -3 6 -5 1 -5 -13z"/>
<path d="M4778 5048 c-1 -13 -2 -43 -4 -68 -1 -25 -4 -70 -6 -100 -3 -51 -1
-55 20 -58 41 -6 49 12 51 113 1 62 -2 95 -9 95 -7 0 -10 -31 -9 -91 1 -55 -3
-95 -10 -102 -18 -18 -24 0 -12 34 13 38 14 86 2 93 -4 3 -6 28 -3 56 3 33 1
50 -7 50 -6 0 -12 -10 -13 -22z"/>
<path d="M8365 5009 c-4 -6 -5 -12 -2 -15 2 -3 7 2 10 11 7 17 1 20 -8 4z"/>
<path d="M5631 4928 c0 -26 4 -50 9 -53 11 -7 11 25 0 70 -7 27 -8 25 -9 -17z"/>
<path d="M8421 4954 c0 -11 3 -14 6 -6 3 7 2 16 -1 19 -3 4 -6 -2 -5 -13z"/>
<path d="M8366 4943 c-6 -14 -5 -15 5 -6 7 7 10 15 7 18 -3 3 -9 -2 -12 -12z"/>
<path d="M5421 4914 c0 -11 3 -14 6 -6 3 7 2 16 -1 19 -3 4 -6 -2 -5 -13z"/>
<path d="M8280 4800 c0 -16 4 -30 8 -30 5 0 7 14 4 30 -2 17 -6 30 -8 30 -2 0
-4 -13 -4 -30z"/>
<path d="M7754 4805 c-6 -16 -29 -20 -37 -7 -2 4 -2 2 -1 -5 2 -7 -15 -27 -38
-45 -46 -36 -35 -52 13 -17 24 17 33 19 39 9 9 -15 23 7 34 53 7 29 -1 38 -10
12z"/>
<path d="M5960 4781 c0 -6 5 -13 10 -16 6 -3 10 1 10 9 0 9 -4 16 -10 16 -5 0
-10 -4 -10 -9z"/>
<path d="M5481 4764 c0 -11 3 -14 6 -6 3 7 2 16 -1 19 -3 4 -6 -2 -5 -13z"/>
<path d="M7780 4754 c0 -8 5 -12 10 -9 6 3 10 10 10 16 0 5 -4 9 -10 9 -5 0
-10 -7 -10 -16z"/>
<path d="M5371 4744 c0 -11 3 -14 6 -6 3 7 2 16 -1 19 -3 4 -6 -2 -5 -13z"/>
<path d="M5971 4728 c1 -7 5 -24 9 -38 7 -22 8 -21 9 13 1 20 -3 37 -9 37 -5
0 -10 -6 -9 -12z"/>
<path d="M8130 4713 c0 -4 5 -15 10 -23 8 -13 10 -13 10 2 0 9 -4 20 -10 23
-5 3 -10 3 -10 -2z"/>
<path d="M8224 4660 c1 -17 4 -30 9 -30 10 0 9 48 -2 54 -4 3 -8 -8 -7 -24z"/>
<path d="M8097 4642 c3 -12 9 -25 14 -28 14 -8 11 10 -6 32 -13 18 -14 18 -8
-4z"/>
<path d="M7751 4624 c0 -11 3 -14 6 -6 3 7 2 16 -1 19 -3 4 -6 -2 -5 -13z"/>
<path d="M8180 4631 c0 -5 5 -13 10 -16 6 -3 10 -2 10 4 0 5 -4 13 -10 16 -5
3 -10 2 -10 -4z"/>
<path d="M7522 4610 c0 -14 2 -19 5 -12 2 6 2 18 0 25 -3 6 -5 1 -5 -13z"/>
<path d="M7961 4613 c-16 -17 -11 -25 8 -14 7 5 12 13 10 19 -2 6 -10 4 -18
-5z"/>
<path d="M7592 4575 c0 -16 2 -22 5 -12 2 9 2 23 0 30 -3 6 -5 -1 -5 -18z"/>
<path d="M7925 4561 c-3 -10 -3 -34 -1 -55 4 -28 0 -42 -14 -56 -11 -11 -20
-29 -20 -39 0 -22 -26 -36 -34 -18 -3 8 -5 8 -5 -1 -1 -12 22 -42 32 -42 2 0
10 18 17 40 7 22 16 40 19 40 3 0 4 -28 3 -61 -3 -39 0 -59 6 -55 12 7 23 75
22 131 0 22 5 53 11 68 10 24 9 31 -9 47 -20 19 -21 19 -27 1z"/>
<path d="M8136 4560 c8 -31 24 -50 24 -29 0 8 -7 24 -16 35 -14 18 -15 18 -8
-6z"/>
<path d="M7263 4499 c-6 -22 -7 -37 -3 -32 12 13 30 73 22 73 -5 0 -13 -18
-19 -41z"/>
<path d="M7466 4525 c4 -8 11 -15 16 -15 6 0 5 6 -2 15 -7 8 -14 15 -16 15 -2
0 -1 -7 2 -15z"/>
<path d="M7889 4503 c-17 -34 -15 -39 9 -24 8 4 12 19 10 33 -3 24 -4 24 -19
-9z"/>
<path d="M5577 4510 c-3 -10 1 -24 7 -29 10 -8 11 -3 8 19 -5 35 -8 37 -15 10z"/>
<path d="M5730 4473 c0 -4 5 -15 10 -23 8 -13 10 -13 10 2 0 9 -4 20 -10 23
-5 3 -10 3 -10 -2z"/>
<path d="M8211 4464 c0 -11 3 -14 6 -6 3 7 2 16 -1 19 -3 4 -6 -2 -5 -13z"/>
<path d="M7966 4461 c-4 -7 -5 -15 -2 -18 9 -9 19 4 14 18 -4 11 -6 11 -12 0z"/>
<path d="M7102 4435 c0 -16 2 -22 5 -12 2 9 2 23 0 30 -3 6 -5 -1 -5 -18z"/>
<path d="M7152 4410 c0 -14 2 -19 5 -12 2 6 2 18 0 25 -3 6 -5 1 -5 -13z"/>
<path d="M5609 4367 c-2 -25 -2 -44 0 -42 2 3 12 0 23 -6 19 -10 19 -10 3 15
-10 14 -15 32 -12 39 3 8 2 20 -3 27 -5 8 -9 -5 -11 -33z"/>
<path d="M5846 4383 c9 -38 14 -42 14 -10 0 14 -5 29 -10 32 -7 4 -8 -3 -4
-22z"/>
<path d="M7494 4375 c-7 -29 -19 -32 -33 -7 -15 25 -13 -1 2 -30 10 -21 15
-23 25 -12 13 15 28 74 18 74 -3 0 -8 -11 -12 -25z"/>
<path d="M7112 4350 c0 -19 2 -27 5 -17 2 9 2 25 0 35 -3 9 -5 1 -5 -18z"/>
<path d="M5653 4321 c1 -31 6 -46 12 -40 14 14 23 11 29 -8 2 -10 2 0 -1 22
-3 21 -14 48 -24 58 -16 18 -17 17 -16 -32z"/>
<path d="M5700 4361 c0 -5 5 -13 10 -16 6 -3 10 -2 10 4 0 5 -4 13 -10 16 -5
3 -10 2 -10 -4z"/>
<path d="M6571 4354 c0 -11 3 -14 6 -6 3 7 2 16 -1 19 -3 4 -6 -2 -5 -13z"/>
<path d="M5430 4350 c0 -5 5 -10 11 -10 5 0 7 5 4 10 -3 6 -8 10 -11 10 -2 0
-4 -4 -4 -10z"/>
<path d="M6662 4335 c0 -16 2 -22 5 -12 2 9 2 23 0 30 -3 6 -5 -1 -5 -18z"/>
<path d="M7827 4353 c-4 -3 -7 -18 -6 -32 1 -26 1 -25 10 3 9 31 7 41 -4 29z"/>
<path d="M8022 4330 c-17 -16 -40 -31 -51 -33 -11 -2 -23 -6 -27 -10 -6 -6
-14 -127 -8 -127 4 0 34 62 34 71 0 4 -7 15 -16 23 -14 15 -13 16 11 16 25 0
75 39 75 59 0 5 8 11 18 13 11 2 13 6 5 11 -6 4 -24 -5 -41 -23z"/>
<path d="M5944 4333 c3 -10 8 -35 12 -55 3 -21 10 -38 14 -38 4 0 11 -11 14
-25 4 -14 11 -25 17 -25 7 0 8 7 4 18 -14 34 -17 89 -6 96 6 4 11 15 11 24 -1
11 -6 8 -16 -11 -17 -32 -34 -27 -34 9 0 13 -5 24 -11 24 -6 0 -8 -8 -5 -17z"/>
<path d="M6412 4340 c0 -8 4 -26 8 -40 6 -20 8 -21 8 -5 0 11 -3 29 -8 40 -5
12 -8 14 -8 5z"/>
<path d="M7140 4334 c0 -8 5 -12 10 -9 6 3 10 10 10 16 0 5 -4 9 -10 9 -5 0
-10 -7 -10 -16z"/>
<path d="M6690 4326 c0 -8 4 -17 9 -20 5 -4 7 3 4 14 -6 23 -13 26 -13 6z"/>
<path d="M7051 4324 c0 -11 3 -14 6 -6 3 7 2 16 -1 19 -3 4 -6 -2 -5 -13z"/>
<path d="M7721 4315 c0 -12 -5 -25 -10 -30 -5 -6 -11 -37 -13 -70 -4 -44 -3
-53 4 -35 5 14 15 37 22 51 9 17 11 39 6 65 -4 21 -8 30 -9 19z"/>
<path d="M8401 4314 c0 -11 3 -14 6 -6 3 7 2 16 -1 19 -3 4 -6 -2 -5 -13z"/>
<path d="M5850 4305 c0 -8 2 -15 4 -15 2 0 6 7 10 15 3 8 1 15 -4 15 -6 0 -10
-7 -10 -15z"/>
<path d="M6827 4294 c-4 -4 -7 -17 -7 -28 1 -19 1 -20 11 -3 11 19 8 43 -4 31z"/>
<path d="M7501 4284 c0 -11 3 -14 6 -6 3 7 2 16 -1 19 -3 4 -6 -2 -5 -13z"/>
<path d="M7846 4291 c-4 -7 -5 -15 -2 -18 9 -9 19 4 14 18 -4 11 -6 11 -12 0z"/>
<path d="M5741 4270 c0 -14 4 -34 9 -45 8 -18 9 -18 9 5 0 14 -4 34 -9 45 -8
18 -9 18 -9 -5z"/>
<path d="M6311 4274 c0 -11 3 -14 6 -6 3 7 2 16 -1 19 -3 4 -6 -2 -5 -13z"/>
<path d="M6596 4256 c5 -33 11 -43 20 -33 4 4 2 12 -3 19 -6 7 -13 20 -16 28
-2 8 -3 2 -1 -14z"/>
<path d="M7381 4271 c-9 -6 -10 -11 -2 -15 6 -4 9 -19 5 -34 -4 -23 -4 -24 6
-9 16 25 9 69 -9 58z"/>
<path d="M5850 4229 c-12 -43 1 -99 22 -99 6 0 5 7 -2 15 -8 10 -11 35 -8 70
3 30 3 55 2 55 -2 0 -8 -19 -14 -41z"/>
<path d="M6421 4260 c0 -8 7 -31 14 -50 12 -31 14 -32 14 -10 0 14 -6 36 -14
50 -8 14 -14 18 -14 10z"/>
<path d="M6521 4260 c0 -15 38 -91 39 -79 0 4 -9 26 -20 50 -11 24 -19 37 -19
29z"/>
<path d="M7907 4247 c-3 -8 -1 -20 4 -28 6 -10 9 -7 9 14 0 29 -5 35 -13 14z"/>
<path d="M7983 4223 c-16 -34 -16 -40 1 -46 10 -4 15 5 18 34 4 46 -2 50 -19
12z"/>
<path d="M6350 4226 c0 -8 5 -18 10 -21 6 -3 10 1 10 9 0 8 -4 18 -10 21 -5 3
-10 -1 -10 -9z"/>
<path d="M7840 4219 c0 -5 5 -7 10 -4 6 3 10 8 10 11 0 2 -4 4 -10 4 -5 0 -10
-5 -10 -11z"/>
<path d="M6072 4200 c0 -14 2 -19 5 -12 2 6 2 18 0 25 -3 6 -5 1 -5 -13z"/>
<path d="M6210 4201 c0 -5 5 -13 10 -16 6 -3 10 -2 10 4 0 5 -4 13 -10 16 -5
3 -10 2 -10 -4z"/>
<path d="M7614 4194 c-18 -14 -18 -15 4 -4 12 6 22 13 22 15 0 8 -5 6 -26 -11z"/>
<path d="M5902 4180 c0 -14 2 -19 5 -12 2 6 2 18 0 25 -3 6 -5 1 -5 -13z"/>
<path d="M5795 4161 c5 -22 3 -36 -5 -41 -9 -5 2 -27 39 -75 58 -77 69 -69 16
11 -19 29 -35 65 -35 81 0 15 -5 35 -11 43 -7 11 -8 6 -4 -19z"/>
<path d="M5961 4178 c1 -7 5 -24 9 -38 8 -24 8 -24 9 7 1 17 -3 35 -9 38 -5 3
-10 0 -9 -7z"/>
<path d="M6402 4120 c1 -41 4 -67 6 -57 3 15 6 16 18 6 13 -11 14 -8 8 17 -4
16 -11 37 -16 47 -5 9 -7 21 -4 25 3 4 1 14 -4 22 -6 10 -9 -12 -8 -60z"/>
<path d="M6054 4165 c2 -11 12 -38 20 -60 l15 -40 -1 55 c0 30 -3 46 -5 36 -5
-19 -6 -18 -20 5 -11 19 -13 20 -9 4z"/>
<path d="M6581 4164 c0 -11 3 -14 6 -6 3 7 2 16 -1 19 -3 4 -6 -2 -5 -13z"/>
<path d="M5622 4150 c0 -14 2 -19 5 -12 2 6 2 18 0 25 -3 6 -5 1 -5 -13z"/>
<path d="M6220 4161 c0 -17 12 -41 20 -41 10 0 1 38 -11 46 -5 3 -9 1 -9 -5z"/>
<path d="M6460 4160 c0 -5 5 -10 11 -10 5 0 7 5 4 10 -3 6 -8 10 -11 10 -2 0
-4 -4 -4 -10z"/>
<path d="M5560 4156 c0 -2 7 -9 15 -16 13 -11 14 -10 9 4 -5 14 -24 23 -24 12z"/>
<path d="M6310 4145 c0 -5 15 -35 33 -65 18 -30 39 -70 45 -89 14 -39 61 -105
69 -97 3 3 1 11 -5 18 -19 24 -82 140 -82 152 0 7 -8 21 -18 32 -10 10 -24 28
-30 39 -6 11 -12 16 -12 10z"/>
<path d="M6432 4133 c8 -10 18 -27 23 -38 4 -12 9 -15 12 -8 5 14 -25 63 -40
63 -5 0 -3 -8 5 -17z"/>
<path d="M6960 4134 c0 -10 5 -26 10 -34 8 -11 9 -7 4 15 -8 37 -14 45 -14 19z"/>
<path d="M7341 4145 c1 -19 18 -51 18 -35 0 8 -4 22 -9 30 -5 8 -9 11 -9 5z"/>
<path d="M8432 4128 c2 -6 17 -13 34 -15 l29 -4 -29 16 c-34 18 -39 19 -34 3z"/>
<path d="M6181 4104 c0 -11 3 -14 6 -6 3 7 2 16 -1 19 -3 4 -6 -2 -5 -13z"/>
<path d="M7910 4100 c0 -19 3 -21 12 -12 9 9 9 15 0 24 -9 9 -12 7 -12 -12z"/>
<path d="M6111 4084 c0 -11 3 -14 6 -6 3 7 2 16 -1 19 -3 4 -6 -2 -5 -13z"/>
<path d="M7572 4080 c0 -14 2 -19 5 -12 2 6 2 18 0 25 -3 6 -5 1 -5 -13z"/>
<path d="M5701 4074 c0 -11 3 -14 6 -6 3 7 2 16 -1 19 -3 4 -6 -2 -5 -13z"/>
<path d="M6504 4065 c8 -8 17 -15 20 -15 3 0 6 7 6 15 0 9 -9 15 -21 15 -18 0
-19 -2 -5 -15z"/>
<path d="M7201 4064 c0 -11 3 -14 6 -6 3 7 2 16 -1 19 -3 4 -6 -2 -5 -13z"/>
<path d="M5760 4058 c0 -9 5 -20 10 -23 13 -8 13 5 0 25 -8 13 -10 13 -10 -2z"/>
<path d="M6066 4040 c3 -19 13 -48 20 -65 l14 -30 -6 40 c-3 22 -12 51 -20 65
-14 25 -15 25 -8 -10z"/>
<path d="M6253 4014 c11 -37 33 -48 23 -11 -3 12 -6 25 -6 28 0 4 -6 9 -14 12
-11 5 -12 -1 -3 -29z"/>
<path d="M5700 4032 c0 -5 9 -17 20 -27 22 -20 26 -9 6 18 -14 18 -26 22 -26
9z"/>
<path d="M5790 4022 c0 -6 5 -14 10 -17 6 -3 10 -13 10 -21 0 -8 -4 -12 -10
-9 -6 3 -7 -1 -3 -10 4 -13 8 -14 14 -4 8 13 10 9 25 -38 2 -7 -1 -13 -6 -13
-6 0 -10 5 -10 11 0 5 -4 8 -9 5 -5 -3 -19 10 -32 28 -13 19 -27 32 -31 30 -4
-3 6 -23 24 -45 28 -35 32 -47 33 -110 1 -49 6 -73 16 -79 21 -14 34 29 13 44
-10 8 -14 23 -12 45 l3 33 28 -25 c15 -15 27 -37 27 -50 0 -14 7 -28 16 -31
14 -5 15 -1 9 31 -4 21 -13 45 -21 54 -8 8 -14 24 -14 34 0 24 -45 119 -65
135 -9 8 -15 8 -15 2z"/>
<path d="M6442 4010 c7 -11 17 -20 22 -20 5 0 1 9 -9 20 -10 11 -20 20 -22 20
-2 0 2 -9 9 -20z"/>
<path d="M6800 4000 c0 -5 5 -10 11 -10 5 0 7 5 4 10 -3 6 -8 10 -11 10 -2 0
-4 -4 -4 -10z"/>
<path d="M7561 3984 c0 -11 3 -14 6 -6 3 7 2 16 -1 19 -3 4 -6 -2 -5 -13z"/>
<path d="M5971 3964 c0 -11 3 -14 6 -6 3 7 2 16 -1 19 -3 4 -6 -2 -5 -13z"/>
<path d="M6740 3961 c0 -6 4 -13 10 -16 6 -3 7 1 4 9 -7 18 -14 21 -14 7z"/>
<path d="M7860 3940 c0 -5 5 -10 11 -10 5 0 7 5 4 10 -3 6 -8 10 -11 10 -2 0
-4 -4 -4 -10z"/>
<path d="M7571 3885 c0 -11 -4 -31 -7 -45 -5 -19 -4 -22 5 -14 7 6 11 26 8 45
-2 19 -5 25 -6 14z"/>
<path d="M5771 3856 c-14 -17 -4 -46 16 -46 12 0 13 3 4 14 -6 7 -9 21 -5 30
8 20 0 21 -15 2z"/>
<path d="M8550 3866 c0 -4 7 -14 15 -22 8 -9 15 -11 15 -6 0 5 -7 15 -15 22
-8 7 -15 9 -15 6z"/>
<path d="M9696 3807 c-7 -29 9 -44 28 -25 13 13 12 17 -4 31 -17 14 -19 14
-24 -6z"/>
<path d="M5720 3811 c0 -5 5 -13 10 -16 6 -3 10 -2 10 4 0 5 -4 13 -10 16 -5
3 -10 2 -10 -4z"/>
<path d="M7571 3784 c0 -11 3 -14 6 -6 3 7 2 16 -1 19 -3 4 -6 -2 -5 -13z"/>
<path d="M7395 3769 c-4 -6 -5 -12 -2 -15 2 -3 7 2 10 11 7 17 1 20 -8 4z"/>
<path d="M7587 3740 c3 -11 9 -22 13 -25 5 -3 6 4 3 15 -3 11 -9 22 -13 25 -5
3 -6 -4 -3 -15z"/>
<path d="M9603 3735 c-7 -8 -9 -16 -4 -20 5 -3 13 -1 16 5 5 8 11 7 21 -1 17
-14 19 2 2 19 -15 15 -20 15 -35 -3z"/>
<path d="M5826 3685 c-3 -9 5 -22 20 -31 33 -22 37 -15 9 18 -18 21 -25 24
-29 13z"/>
<path d="M8494 3649 c-15 -31 -44 -116 -44 -133 0 -5 8 -1 19 8 11 10 21 38
25 68 4 28 12 60 17 70 5 10 7 18 5 18 -3 0 -13 -14 -22 -31z"/>
<path d="M9255 3667 c-4 -10 -5 -21 -1 -24 10 -10 18 4 13 24 -4 17 -4 17 -12
0z"/>
<path d="M5780 3648 c0 -9 5 -20 10 -23 13 -8 13 5 0 25 -8 13 -10 13 -10 -2z"/>
<path d="M5915 3631 c-3 -5 -1 -12 5 -16 5 -3 10 1 10 9 0 18 -6 21 -15 7z"/>
<path d="M8690 3608 c-12 -22 -12 -22 6 -6 10 10 15 20 12 24 -4 3 -12 -5 -18
-18z"/>
<path d="M9091 3604 c0 -11 3 -14 6 -6 3 7 2 16 -1 19 -3 4 -6 -2 -5 -13z"/>
<path d="M9145 3590 c3 -5 8 -10 11 -10 2 0 4 5 4 10 0 6 -5 10 -11 10 -5 0
-7 -4 -4 -10z"/>
<path d="M9246 3583 c-6 -14 -5 -15 5 -6 7 7 10 15 7 18 -3 3 -9 -2 -12 -12z"/>
<path d="M8520 3531 c0 -23 2 -41 4 -41 8 0 12 71 4 76 -4 3 -8 -13 -8 -35z"/>
<path d="M9600 3556 c0 -9 5 -16 10 -16 6 0 10 4 10 9 0 6 -4 13 -10 16 -5 3
-10 -1 -10 -9z"/>
<path d="M9290 3555 c0 -13 24 -55 32 -55 5 0 2 14 -7 30 -14 27 -25 38 -25
25z"/>
<path d="M6000 3530 c0 -5 5 -10 11 -10 5 0 7 5 4 10 -3 6 -8 10 -11 10 -2 0
-4 -4 -4 -10z"/>
<path d="M8756 3531 c-7 -11 3 -41 14 -41 4 0 5 11 2 25 -5 27 -8 30 -16 16z"/>
<path d="M6030 3506 c0 -2 8 -10 18 -17 15 -13 16 -12 3 4 -13 16 -21 21 -21
13z"/>
<path d="M8704 3486 c-3 -8 -4 -27 -1 -43 l4 -28 8 33 c4 17 11 32 16 32 5 0
9 5 9 10 0 15 -30 12 -36 -4z"/>
<path d="M8932 3465 c0 -16 2 -22 5 -12 2 9 2 23 0 30 -3 6 -5 -1 -5 -18z"/>
<path d="M8741 3454 c0 -11 3 -14 6 -6 3 7 2 16 -1 19 -3 4 -6 -2 -5 -13z"/>
<path d="M9016 3443 c-4 -9 -2 -21 4 -27 7 -7 10 -2 10 17 0 31 -5 34 -14 10z"/>
<path d="M9342 3437 c-12 -14 -5 -57 8 -57 8 0 20 34 20 58 0 16 -15 15 -28
-1z"/>
<path d="M8710 3399 c0 -5 5 -7 10 -4 6 3 10 8 10 11 0 2 -4 4 -10 4 -5 0 -10
-5 -10 -11z"/>
<path d="M9050 3392 c0 -10 22 -32 32 -32 5 0 3 9 -4 20 -13 20 -28 27 -28 12z"/>
<path d="M6171 3328 c0 -10 -5 -18 -11 -18 -5 0 -10 -7 -10 -16 0 -14 1 -14
16 0 8 9 13 24 11 34 -4 16 -5 16 -6 0z"/>
<path d="M6190 3271 c0 -6 5 -13 10 -16 6 -3 10 1 10 9 0 9 -4 16 -10 16 -5 0
-10 -4 -10 -9z"/>
<path d="M6510 3225 c1 -26 2 -28 11 -12 8 14 8 22 0 30 -8 8 -11 3 -11 -18z"/>
<path d="M6560 3186 c0 -8 -6 -16 -12 -19 -10 -4 -10 -7 -1 -18 15 -15 19 -12
28 24 5 17 3 27 -4 27 -6 0 -11 -6 -11 -14z"/>
<path d="M6760 2949 c11 -38 16 -44 25 -30 3 6 1 11 -4 11 -6 0 -11 11 -11 25
0 14 -4 25 -9 25 -6 0 -6 -12 -1 -31z"/>
<path d="M6805 2953 c11 -48 15 -54 26 -48 8 5 8 10 0 18 -6 6 -11 19 -11 28
0 10 -5 21 -10 24 -7 4 -9 -3 -5 -22z"/>
<path d="M6817 2815 c3 -8 9 -12 14 -9 12 7 11 11 -5 17 -10 4 -13 1 -9 -8z"/>
<path d="M4304 2759 c-32 -18 -72 -47 -89 -65 -28 -32 -136 -94 -161 -94 -7 0
-25 -12 -41 -28 -15 -15 -53 -47 -83 -72 -30 -24 -86 -72 -125 -105 -38 -34
-90 -71 -114 -84 -24 -12 -63 -36 -87 -54 -92 -68 -204 -136 -224 -137 -8 0
-28 -7 -44 -15 -15 -8 -33 -15 -38 -15 -6 0 -38 -13 -72 -30 -82 -39 -186 -80
-205 -80 -8 0 -67 -26 -131 -59 -63 -32 -149 -70 -190 -85 -41 -15 -84 -31
-95 -36 -11 -5 -47 -18 -80 -29 -33 -11 -91 -36 -130 -56 -41 -21 -103 -42
-150 -51 -44 -9 -89 -19 -100 -24 -11 -5 -54 -18 -95 -30 -41 -12 -115 -35
-165 -50 -49 -16 -142 -38 -205 -49 -63 -10 -137 -26 -165 -34 -27 -8 -90 -24
-140 -37 -102 -26 -216 -73 -259 -108 -16 -13 -42 -40 -57 -60 -100 -131 -98
-130 -175 -158 -41 -15 -74 -30 -74 -35 0 -11 -98 -75 -129 -84 -27 -8 -116
-60 -144 -83 -9 -9 -26 -20 -36 -26 -10 -6 -52 -36 -93 -67 -41 -31 -84 -62
-96 -68 -13 -7 -37 -34 -53 -62 -25 -40 -36 -49 -59 -49 -22 0 -29 -5 -33 -29
-5 -21 -22 -40 -61 -68 -30 -21 -55 -44 -56 -51 0 -7 -11 -18 -25 -24 l-25
-11 0 -229 0 -228 2206 0 c1761 0 2204 3 2198 13 -4 6 -18 26 -30 44 -13 17
-24 36 -24 41 0 5 -9 17 -19 26 -14 13 -18 27 -15 54 3 29 2 32 -4 12 l-8 -25
-13 24 c-12 21 -11 26 3 36 14 11 15 14 1 25 -11 9 -13 23 -9 51 6 34 4 39
-10 33 -14 -6 -16 -2 -10 22 6 26 5 27 -8 16 -17 -14 -34 0 -23 18 4 6 1 27
-6 48 -7 20 -12 49 -10 64 1 15 -5 38 -14 52 -9 13 -15 33 -13 43 2 10 -2 17
-8 16 -6 -1 -11 16 -12 40 -1 23 -6 53 -11 67 -12 32 -20 189 -10 196 7 4 3
147 -7 209 -3 17 -7 64 -10 105 -3 41 -10 86 -15 100 -5 14 -12 66 -15 115 -3
50 -7 106 -10 125 -2 19 -5 118 -8 220 -3 154 0 203 16 288 26 141 60 232 123
327 80 122 107 177 144 294 34 105 29 110 -65 60z m-746 -1459 c0 -41 -1 -42
-8 -15 -4 17 -8 46 -8 65 -1 28 1 31 8 15 5 -11 8 -40 8 -65z m-138 -110 c0
-5 -5 -10 -11 -10 -5 0 -7 5 -4 10 3 6 8 10 11 10 2 0 4 -4 4 -10z m-2530
-166 c0 -8 -5 -12 -10 -9 -6 4 -8 11 -5 16 9 14 15 11 15 -7z m3310 -685 c0
-6 -4 -7 -10 -4 -5 3 -10 11 -10 16 0 6 5 7 10 4 6 -3 10 -11 10 -16z"/>
<path d="M6852 2615 c0 -16 2 -22 5 -12 2 9 2 23 0 30 -3 6 -5 -1 -5 -18z"/>
<path d="M6935 2560 c3 -5 8 -10 11 -10 2 0 4 5 4 10 0 6 -5 10 -11 10 -5 0
-7 -4 -4 -10z"/>
<path d="M6920 2342 c0 -4 9 -13 20 -20 16 -10 20 -10 20 2 0 8 -7 17 -16 20
-20 8 -24 8 -24 -2z"/>
<path d="M7110 1600 c0 -5 5 -10 10 -10 6 0 10 5 10 10 0 6 -4 10 -10 10 -5 0
-10 -4 -10 -10z"/>
<path d="M6820 1575 c0 -8 5 -15 10 -15 6 0 10 7 10 15 0 8 -4 15 -10 15 -5 0
-10 -7 -10 -15z"/>
<path d="M7205 1520 c3 -5 13 -10 21 -10 8 0 14 5 14 10 0 6 -9 10 -21 10 -11
0 -17 -4 -14 -10z"/>
<path d="M7636 1321 c-4 -7 -5 -15 -2 -18 9 -9 19 4 14 18 -4 11 -6 11 -12 0z"/>
<path d="M6643 1313 c-22 -4 -33 -33 -13 -33 6 0 10 4 10 8 0 5 10 8 21 8 12
-1 24 5 26 12 5 12 -3 13 -44 5z"/>
<path d="M6561 1284 c0 -11 3 -14 6 -6 3 7 2 16 -1 19 -3 4 -6 -2 -5 -13z"/>
<path d="M6580 1280 c0 -5 5 -10 10 -10 6 0 10 5 10 10 0 6 -4 10 -10 10 -5 0
-10 -4 -10 -10z"/>
<path d="M7685 1130 c3 -5 8 -10 11 -10 2 0 4 5 4 10 0 6 -5 10 -11 10 -5 0
-7 -4 -4 -10z"/>
<path d="M7620 930 c0 -19 11 -26 23 -14 8 8 -3 34 -14 34 -5 0 -9 -9 -9 -20z"/>
</g>
</svg>
